<svg xmlns="http://www.w3.org/2000/svg" xmlns:xlink="http://www.w3.org/1999/xlink" width="840" height="277.1"><rect width="840" height="277.1" rx="5" ry="5" class="a"/><svg y="0%" x="0%"><circle cx="20" cy="20" r="6" fill="#ff5f58"/><circle cx="40" cy="20" r="6" fill="#ffbd2e"/><circle cx="60" cy="20" r="6" fill="#18c132"/></svg><svg height="217.1" viewBox="0 0 80 21.71" width="800" x="15" xmlns="http://www.w3.org/2000/svg" xmlns:xlink="http://www.w3.org/1999/xlink" y="50"><style>@keyframes q{0%{transform:translateX(0)}.1%{transform:translateX(-160px)}.4%{transform:translateX(-400px)}9.3%{transform:translateX(-480px)}9.5%{transform:translateX(-720px)}15.9%{transform:translateX(-1040px)}16.2%{transform:translateX(-1120px)}25.5%{transform:translateX(-1280px)}25.6%{transform:translateX(-1360px)}25.8%{transform:translateX(-1520px)}35%{transform:translateX(-1600px)}35.2%{transform:translateX(-1840px)}39.2%{transform:translateX(-2160px)}39.3%{transform:translateX(-2240px)}44.2%{transform:translateX(-2480px)}44.4%{transform:translateX(-2640px)}58.4%{transform:translateX(-2720px)}58.6%{transform:translateX(-2960px)}65.5%{transform:translateX(-3200px)}68%{transform:translateX(-3360px)}70.1%{transform:translateX(-3440px)}77.6%{transform:translateX(-3920px)}82.2%{transform:translateX(-4000px)}82.3%{transform:translateX(-4080px)}82.5%{transform:translateX(-4240px)}to{transform:translateX(-4400px)}}.a{fill:#161827}.f{fill:#8ce10b}.g{fill:#00d8eb}.h{fill:#5f5f5f}.i{fill:#dfdfdf}.j{fill:#005fd7}.k{fill:#00afff}.l{fill:#878700}.m{fill:#fff;font-weight:700}.n{fill:#585858}</style><g font-size="1.67" font-family="Monaco,Consolas,Menlo,'Bitstream Vera Sans Mono','Powerline Symbols',monospace"><defs><symbol id="1"><text y="1.67" class="f">●</text><text x="2.004" y="1.67" class="g">⍴</text><text x="4.008" y="1.67" class="h">→</text></symbol><symbol id="2"><text y="1.67" class="f">●</text><text x="2.004" y="1.67" class="g">⍴</text><text x="4.008" y="1.67" class="h">→</text><text x="6.012" y="1.67" class="i">enquirer</text><text x="15.03" y="1.67" class="i">confirm</text><text x="23.046" y="1.67" class="i">-m</text><text x="26.052" y="1.67" class="i">&quot;Pull</text><text x="32.064" y="1.67" class="i">from</text><text x="37.074" y="1.67" class="i">master?&quot;</text></symbol><symbol id="3"><text y="1.67" class="f">●</text><text x="2.004" y="1.67" class="g">⍴</text><text x="4.008" y="1.67" class="h">→</text><text x="6.012" y="1.67" class="j">enquirer</text><text x="15.03" y="1.67" class="k">confirm</text><text x="23.046" y="1.67" class="k">-m</text><text x="26.052" y="1.67" class="l">&quot;Pull</text><text x="32.064" y="1.67" class="l">from</text><text x="37.074" y="1.67" class="l">master?&quot;</text></symbol><symbol id="4"><text y="1.67" class="g">?</text><text x="2.004" y="1.67" class="m">Pull</text><text x="7.014" y="1.67" class="m">from</text><text x="12.024" y="1.67" class="m">master?</text><text x="20.04" y="1.67" class="h">(y/N)</text><text x="26.052" y="1.67" class="h">›</text><text x="28.056" y="1.67" class="g">false</text></symbol><symbol id="5"><text y="1.67" class="f">✔</text><text x="2.004" y="1.67" class="m">Pull</text><text x="7.014" y="1.67" class="m">from</text><text x="12.024" y="1.67" class="m">master?</text><text x="20.04" y="1.67" class="h">·</text><text x="22.044" y="1.67" class="f">false</text></symbol><symbol id="6"><text y="1.67" class="i">false</text></symbol><symbol id="7"><text y="1.67" class="f">✔</text><text x="2.004" y="1.67" class="m">Pull</text><text x="7.014" y="1.67" class="m">from</text><text x="12.024" y="1.67" class="m">master?</text><text x="20.04" y="1.67" class="h">·</text><text x="22.044" y="1.67" class="f">true</text></symbol><symbol id="8"><text y="1.67" class="i">true</text></symbol><symbol id="9"><text y="1.67" class="f">●</text><text x="2.004" y="1.67" class="g">⍴</text><text x="4.008" y="1.67" class="h">→</text><text x="6.012" y="1.67" class="j">enquirer</text><text x="15.03" y="1.67" class="k">confirm</text><text x="23.046" y="1.67" class="k">-m</text><text x="26.052" y="1.67" class="l">&quot;Pull</text><text x="32.064" y="1.67" class="l">from</text><text x="37.074" y="1.67" class="l">master?&quot;</text><text x="46.092" y="1.67" class="n">-d</text></symbol><symbol id="10"><text y="1.67" class="f">●</text><text x="2.004" y="1.67" class="g">⍴</text><text x="4.008" y="1.67" class="h">→</text><text x="6.012" y="1.67" class="j">enquirer</text><text x="15.03" y="1.67" class="k">confirm</text><text x="23.046" y="1.67" class="k">-m</text><text x="26.052" y="1.67" class="l">&quot;Pull</text><text x="32.064" y="1.67" class="l">from</text><text x="37.074" y="1.67" class="l">master?&quot;</text><text x="46.092" y="1.67" class="k">-d</text></symbol><symbol id="a"><path fill="transparent" d="M0 0h80v11H0z"/></symbol><symbol id="b"><path fill="#d6d6d6" d="M0 0h1.102v2.171H0z"/></symbol></defs><path class="a" d="M0 0h80v21.71H0z"/><g style="animation-duration:8.898349s;animation-iteration-count:infinite;animation-name:q;animation-timing-function:steps(1,end)"><svg width="4480"><svg><use xlink:href="#a"/><use xlink:href="#b" x="-.004"/></svg><svg x="80"><use xlink:href="#a"/><use xlink:href="#b" x="-.004"/></svg><svg x="160"><use xlink:href="#a"/><use xlink:href="#b" x="-.004"/></svg><svg x="240"><use xlink:href="#a"/><use xlink:href="#b" x="-.004"/></svg><svg x="320"><use xlink:href="#a"/><use xlink:href="#b" x="-.004"/></svg><svg x="400"><use xlink:href="#a"/><use xlink:href="#b" x="5.996"/><use xlink:href="#1"/></svg><svg x="480"><use xlink:href="#a"/><use xlink:href="#b" x="44.996"/><use xlink:href="#2"/></svg><svg x="560"><use xlink:href="#a"/><use xlink:href="#b" x="-.004"/><use xlink:href="#2"/></svg><svg x="640"><use xlink:href="#a"/><use xlink:href="#b" x="44.996"/><use xlink:href="#2"/></svg><svg x="720"><use xlink:href="#a"/><use xlink:href="#b" x="44.996"/><use xlink:href="#3"/></svg><svg x="800"><use xlink:href="#a"/><use xlink:href="#b" x="-.004" y="2.146"/><use xlink:href="#3"/></svg><svg x="880"><use xlink:href="#a"/><use xlink:href="#b" x="-.004" y="2.146"/><use xlink:href="#3"/></svg><svg x="960"><use xlink:href="#a"/><use xlink:href="#b" x="-.004" y="2.146"/><use xlink:href="#3"/></svg><svg x="1040"><use xlink:href="#a"/><use xlink:href="#b" x="-.004" y="2.146"/><use xlink:href="#3"/></svg><svg x="1120"><use xlink:href="#a"/><use xlink:href="#b" x="33.996" y="2.146"/><use xlink:href="#3"/><use xlink:href="#4" y="2.171"/></svg><svg x="1200"><use xlink:href="#a"/><use xlink:href="#b" x="-.004" y="4.317"/><use xlink:href="#3"/><use xlink:href="#5" y="2.171"/></svg><svg x="1280"><use xlink:href="#a"/><use xlink:href="#b" x="-.004" y="6.488"/><use xlink:href="#3"/><use xlink:href="#5" y="2.171"/><use xlink:href="#6" y="4.342"/></svg><svg x="1360"><use xlink:href="#a"/><use xlink:href="#b" x="-.004" y="6.488"/><use xlink:href="#3"/><use xlink:href="#5" y="2.171"/><use xlink:href="#6" y="4.342"/></svg><svg x="1440"><use xlink:href="#a"/><use xlink:href="#b" x="-.004" y="6.488"/><use xlink:href="#3"/><use xlink:href="#5" y="2.171"/><use xlink:href="#6" y="4.342"/></svg><svg x="1520"><use xlink:href="#a"/><use xlink:href="#b" x="5.996" y="6.488"/><use xlink:href="#3"/><use xlink:href="#5" y="2.171"/><use xlink:href="#6" y="4.342"/><use xlink:href="#1" y="6.513"/></svg><svg x="1600"><use xlink:href="#a"/><use xlink:href="#b" x="44.996" y="6.488"/><use xlink:href="#3"/><use xlink:href="#5" y="2.171"/><use xlink:href="#6" y="4.342"/><use xlink:href="#2" y="6.513"/></svg><svg x="1680"><use xlink:href="#a"/><use xlink:href="#b" x="-.004" y="6.488"/><use xlink:href="#3"/><use xlink:href="#5" y="2.171"/><use xlink:href="#6" y="4.342"/><use xlink:href="#2" y="6.513"/></svg><svg x="1760"><use xlink:href="#a"/><use xlink:href="#b" x="44.996" y="6.488"/><use xlink:href="#3"/><use xlink:href="#5" y="2.171"/><use xlink:href="#6" y="4.342"/><use xlink:href="#2" y="6.513"/></svg><svg x="1840"><use xlink:href="#a"/><use xlink:href="#b" x="44.996" y="6.488"/><use xlink:href="#3"/><use xlink:href="#5" y="2.171"/><use xlink:href="#6" y="4.342"/><use xlink:href="#3" y="6.513"/></svg><svg x="1920"><use xlink:href="#a"/><use xlink:href="#b" x="-.004" y="8.659"/><use xlink:href="#3"/><use xlink:href="#5" y="2.171"/><use xlink:href="#6" y="4.342"/><use xlink:href="#3" y="6.513"/></svg><svg x="2000"><use xlink:href="#a"/><use xlink:href="#b" x="-.004" y="8.659"/><use xlink:href="#3"/><use xlink:href="#5" y="2.171"/><use xlink:href="#6" y="4.342"/><use xlink:href="#3" y="6.513"/></svg><svg x="2080"><use xlink:href="#a"/><use xlink:href="#b" x="-.004" y="8.659"/><use xlink:href="#3"/><use xlink:href="#5" y="2.171"/><use xlink:href="#6" y="4.342"/><use xlink:href="#3" y="6.513"/></svg><svg x="2160"><use xlink:href="#a"/><use xlink:href="#b" x="-.004" y="8.659"/><use xlink:href="#3"/><use xlink:href="#5" y="2.171"/><use xlink:href="#6" y="4.342"/><use xlink:href="#3" y="6.513"/></svg><svg x="2240"><use xlink:href="#a"/><use xlink:href="#b" x="33.996" y="8.659"/><use xlink:href="#3"/><use xlink:href="#5" y="2.171"/><use xlink:href="#6" y="4.342"/><use xlink:href="#3" y="6.513"/><use xlink:href="#4" y="8.684"/></svg><svg x="2320"><use xlink:href="#a"/><use xlink:href="#b" x="-.004" y="8.659"/><use xlink:href="#3"/><use xlink:href="#5" y="2.171"/><use xlink:href="#6" y="4.342"/><use xlink:href="#3" y="6.513"/></svg><svg x="2400"><use xlink:href="#a"/><use xlink:href="#b" x="-.004" y="13.001"/><use xlink:href="#3"/><use xlink:href="#5" y="2.171"/><use xlink:href="#6" y="4.342"/><use xlink:href="#3" y="6.513"/><use xlink:href="#7" y="8.684"/><use xlink:href="#8" y="10.855"/></svg><svg x="2480"><use xlink:href="#a"/><use xlink:href="#b" x="-.004" y="13.001"/><use xlink:href="#3"/><use xlink:href="#5" y="2.171"/><use xlink:href="#6" y="4.342"/><use xlink:href="#3" y="6.513"/><use xlink:href="#7" y="8.684"/><use xlink:href="#8" y="10.855"/></svg><svg x="2560"><use xlink:href="#a"/><use xlink:href="#b" x="-.004" y="13.001"/><use xlink:href="#3"/><use xlink:href="#5" y="2.171"/><use xlink:href="#6" y="4.342"/><use xlink:href="#3" y="6.513"/><use xlink:href="#7" y="8.684"/><use xlink:href="#8" y="10.855"/></svg><svg x="2640"><use xlink:href="#a"/><use xlink:href="#b" x="5.996" y="13.001"/><use xlink:href="#3"/><use xlink:href="#5" y="2.171"/><use xlink:href="#6" y="4.342"/><use xlink:href="#3" y="6.513"/><use xlink:href="#7" y="8.684"/><use xlink:href="#8" y="10.855"/><use xlink:href="#1" y="13.026"/></svg><svg x="2720"><use xlink:href="#a"/><use xlink:href="#b" x="44.996" y="13.001"/><use xlink:href="#3"/><use xlink:href="#5" y="2.171"/><use xlink:href="#6" y="4.342"/><use xlink:href="#3" y="6.513"/><use xlink:href="#7" y="8.684"/><use xlink:href="#8" y="10.855"/><use xlink:href="#2" y="13.026"/></svg><svg x="2800"><use xlink:href="#a"/><use xlink:href="#b" x="-.004" y="13.001"/><use xlink:href="#3"/><use xlink:href="#5" y="2.171"/><use xlink:href="#6" y="4.342"/><use xlink:href="#3" y="6.513"/><use xlink:href="#7" y="8.684"/><use xlink:href="#8" y="10.855"/><use xlink:href="#2" y="13.026"/></svg><svg x="2880"><use xlink:href="#a"/><use xlink:href="#b" x="44.996" y="13.001"/><use xlink:href="#3"/><use xlink:href="#5" y="2.171"/><use xlink:href="#6" y="4.342"/><use xlink:href="#3" y="6.513"/><use xlink:href="#7" y="8.684"/><use xlink:href="#8" y="10.855"/><use xlink:href="#2" y="13.026"/></svg><svg x="2960"><use xlink:href="#a"/><use xlink:href="#b" x="44.996" y="13.001"/><use xlink:href="#3"/><use xlink:href="#5" y="2.171"/><use xlink:href="#6" y="4.342"/><use xlink:href="#3" y="6.513"/><use xlink:href="#7" y="8.684"/><use xlink:href="#8" y="10.855"/><use xlink:href="#3" y="13.026"/></svg><svg x="3040"><use xlink:href="#a"/><use xlink:href="#b" x="45.996" y="13.001"/><use xlink:href="#3"/><use xlink:href="#5" y="2.171"/><use xlink:href="#6" y="4.342"/><use xlink:href="#3" y="6.513"/><use xlink:href="#7" y="8.684"/><use xlink:href="#8" y="10.855"/><use xlink:href="#3" y="13.026"/></svg><svg x="3120"><use xlink:href="#a"/><use xlink:href="#b" x="45.996" y="13.001"/><use xlink:href="#3"/><use xlink:href="#5" y="2.171"/><use xlink:href="#6" y="4.342"/><use xlink:href="#3" y="6.513"/><use xlink:href="#7" y="8.684"/><use xlink:href="#8" y="10.855"/><use xlink:href="#9" y="13.026"/></svg><svg x="3200"><use xlink:href="#a"/><use xlink:href="#b" x="45.996" y="13.001"/><use xlink:href="#3"/><use xlink:href="#5" y="2.171"/><use xlink:href="#6" y="4.342"/><use xlink:href="#3" y="6.513"/><use xlink:href="#7" y="8.684"/><use xlink:href="#8" y="10.855"/><use xlink:href="#9" y="13.026"/></svg><svg x="3280"><use xlink:href="#a"/><use xlink:href="#b" x="46.996" y="13.001"/><use xlink:href="#3"/><use xlink:href="#5" y="2.171"/><use xlink:href="#6" y="4.342"/><use xlink:href="#3" y="6.513"/><use xlink:href="#7" y="8.684"/><use xlink:href="#8" y="10.855"/><text y="14.696" class="f">●</text><text x="2.004" y="14.696" class="g">⍴</text><text x="4.008" y="14.696" class="h">→</text><text x="6.012" y="14.696" class="j">enquirer</text><text x="15.03" y="14.696" class="k">confirm</text><text x="23.046" y="14.696" class="k">-m</text><text x="26.052" y="14.696" class="l">&quot;Pull</text><text x="32.064" y="14.696" class="l">from</text><text x="37.074" y="14.696" class="l">master?&quot;</text><text x="46.092" y="14.696" class="i">-</text><text x="47.094" y="14.696" class="n">d</text></svg><svg x="3360"><use xlink:href="#a"/><use xlink:href="#b" x="46.996" y="13.001"/><use xlink:href="#3"/><use xlink:href="#5" y="2.171"/><use xlink:href="#6" y="4.342"/><use xlink:href="#3" y="6.513"/><use xlink:href="#7" y="8.684"/><use xlink:href="#8" y="10.855"/><text y="14.696" class="f">●</text><text x="2.004" y="14.696" class="g">⍴</text><text x="4.008" y="14.696" class="h">→</text><text x="6.012" y="14.696" class="j">enquirer</text><text x="15.03" y="14.696" class="k">confirm</text><text x="23.046" y="14.696" class="k">-m</text><text x="26.052" y="14.696" class="l">&quot;Pull</text><text x="32.064" y="14.696" class="l">from</text><text x="37.074" y="14.696" class="l">master?&quot;</text><text x="46.092" y="14.696" class="k">-</text><text x="47.094" y="14.696" class="n">d</text></svg><svg x="3440"><use xlink:href="#a"/><use xlink:href="#b" x="47.996" y="13.001"/><use xlink:href="#3"/><use xlink:href="#5" y="2.171"/><use xlink:href="#6" y="4.342"/><use xlink:href="#3" y="6.513"/><use xlink:href="#7" y="8.684"/><use xlink:href="#8" y="10.855"/><use xlink:href="#10" y="13.026"/></svg><svg x="3520"><use xlink:href="#a"/><use xlink:href="#b" x="-.004" y="15.172"/><use xlink:href="#3"/><use xlink:href="#5" y="2.171"/><use xlink:href="#6" y="4.342"/><use xlink:href="#3" y="6.513"/><use xlink:href="#7" y="8.684"/><use xlink:href="#8" y="10.855"/><use xlink:href="#10" y="13.026"/></svg><svg x="3600"><use xlink:href="#a"/><use xlink:href="#b" x="-.004" y="15.172"/><use xlink:href="#3"/><use xlink:href="#5" y="2.171"/><use xlink:href="#6" y="4.342"/><use xlink:href="#3" y="6.513"/><use xlink:href="#7" y="8.684"/><use xlink:href="#8" y="10.855"/><use xlink:href="#10" y="13.026"/></svg><svg x="3680"><use xlink:href="#a"/><use xlink:href="#b" x="-.004" y="15.172"/><use xlink:href="#3"/><use xlink:href="#5" y="2.171"/><use xlink:href="#6" y="4.342"/><use xlink:href="#3" y="6.513"/><use xlink:href="#7" y="8.684"/><use xlink:href="#8" y="10.855"/><use xlink:href="#10" y="13.026"/></svg><svg x="3760"><use xlink:href="#a"/><use xlink:href="#b" x="-.004" y="15.172"/><use xlink:href="#3"/><use xlink:href="#5" y="2.171"/><use xlink:href="#6" y="4.342"/><use xlink:href="#3" y="6.513"/><use xlink:href="#7" y="8.684"/><use xlink:href="#8" y="10.855"/><use xlink:href="#10" y="13.026"/></svg><svg x="3840"><use xlink:href="#a"/><use xlink:href="#b" x="-.004" y="15.172"/><use xlink:href="#3"/><use xlink:href="#5" y="2.171"/><use xlink:href="#6" y="4.342"/><use xlink:href="#3" y="6.513"/><use xlink:href="#7" y="8.684"/><use xlink:href="#8" y="10.855"/><use xlink:href="#10" y="13.026"/></svg><svg x="3920"><use xlink:href="#a"/><use xlink:href="#b" x="32.996" y="15.172"/><use xlink:href="#3"/><use xlink:href="#5" y="2.171"/><use xlink:href="#6" y="4.342"/><use xlink:href="#3" y="6.513"/><use xlink:href="#7" y="8.684"/><use xlink:href="#8" y="10.855"/><use xlink:href="#10" y="13.026"/><text y="16.867" class="g">?</text><text x="2.004" y="16.867" class="m">Pull</text><text x="7.014" y="16.867" class="m">from</text><text x="12.024" y="16.867" class="m">master?</text><text x="20.04" y="16.867" class="h">(Y/n)</text><text x="26.052" y="16.867" class="h">›</text><text x="28.056" y="16.867" class="g">true</text></svg><svg x="4000"><use xlink:href="#a"/><use xlink:href="#b" x="-.004" y="19.514"/><use xlink:href="#3"/><use xlink:href="#5" y="2.171"/><use xlink:href="#6" y="4.342"/><use xlink:href="#3" y="6.513"/><use xlink:href="#7" y="8.684"/><use xlink:href="#8" y="10.855"/><use xlink:href="#10" y="13.026"/><use xlink:href="#7" y="15.197"/><use xlink:href="#8" y="17.368"/></svg><svg x="4080"><use xlink:href="#a"/><use xlink:href="#b" x="-.004" y="19.514"/><use xlink:href="#3"/><use xlink:href="#5" y="2.171"/><use xlink:href="#6" y="4.342"/><use xlink:href="#3" y="6.513"/><use xlink:href="#7" y="8.684"/><use xlink:href="#8" y="10.855"/><use xlink:href="#10" y="13.026"/><use xlink:href="#7" y="15.197"/><use xlink:href="#8" y="17.368"/></svg><svg x="4160"><use xlink:href="#a"/><use xlink:href="#b" x="-.004" y="19.514"/><use xlink:href="#3"/><use xlink:href="#5" y="2.171"/><use xlink:href="#6" y="4.342"/><use xlink:href="#3" y="6.513"/><use xlink:href="#7" y="8.684"/><use xlink:href="#8" y="10.855"/><use xlink:href="#10" y="13.026"/><use xlink:href="#7" y="15.197"/><use xlink:href="#8" y="17.368"/></svg><svg x="4240"><use xlink:href="#a"/><use xlink:href="#b" x="5.996" y="19.514"/><use xlink:href="#3"/><use xlink:href="#5" y="2.171"/><use xlink:href="#6" y="4.342"/><use xlink:href="#3" y="6.513"/><use xlink:href="#7" y="8.684"/><use xlink:href="#8" y="10.855"/><use xlink:href="#10" y="13.026"/><use xlink:href="#7" y="15.197"/><use xlink:href="#8" y="17.368"/><use xlink:href="#1" y="19.539"/></svg><svg x="4320"><use xlink:href="#a"/><use xlink:href="#b" x="-.004" y="21.685"/><use xlink:href="#3"/><use xlink:href="#5" y="2.171"/><use xlink:href="#6" y="4.342"/><use xlink:href="#3" y="6.513"/><use xlink:href="#7" y="8.684"/><use xlink:href="#8" y="10.855"/><use xlink:href="#10" y="13.026"/><use xlink:href="#7" y="15.197"/><use xlink:href="#8" y="17.368"/><use xlink:href="#1" y="19.539"/></svg><svg x="4400"><use xlink:href="#a"/><use xlink:href="#b" x="-.004" y="21.685"/><use xlink:href="#3"/><use xlink:href="#5" y="2.171"/><use xlink:href="#6" y="4.342"/><use xlink:href="#3" y="6.513"/><use xlink:href="#7" y="8.684"/><use xlink:href="#8" y="10.855"/><use xlink:href="#10" y="13.026"/><use xlink:href="#7" y="15.197"/><use xlink:href="#8" y="17.368"/><use xlink:href="#1" y="19.539"/></svg></svg></g></g></svg></svg>
