<svg xmlns="http://www.w3.org/2000/svg" xmlns:xlink="http://www.w3.org/1999/xlink" width="900" height="450.78"><rect width="900" height="450.78" rx="5" ry="5" class="a"/><svg y="0%" x="0%"><circle cx="20" cy="20" r="6" fill="#ff5f58"/><circle cx="40" cy="20" r="6" fill="#ffbd2e"/><circle cx="60" cy="20" r="6" fill="#18c132"/></svg><svg height="390.78" viewBox="0 0 86 39.078" width="860" x="15" xmlns="http://www.w3.org/2000/svg" xmlns:xlink="http://www.w3.org/1999/xlink" y="50"><style>@keyframes r{0%{transform:translateX(-86px)}.13%{transform:translateX(-258px)}.14%{transform:translateX(-344px)}3.66%{transform:translateX(-430px)}3.77%{transform:translateX(-688px)}6.33%{transform:translateX(-1032px)}6.34%{transform:translateX(-1118px)}6.36%{transform:translateX(-1204px)}10.99%{transform:translateX(-1290px)}12.26%{transform:translateX(-1376px)}13.13%{transform:translateX(-1462px)}14.48%{transform:translateX(-1634px)}15.96%{transform:translateX(-1806px)}16.08%{transform:translateX(-1978px)}21.78%{transform:translateX(-2064px)}21.9%{transform:translateX(-2236px)}21.91%{transform:translateX(-2322px)}27.27%{transform:translateX(-2494px)}29.1%{transform:translateX(-2580px)}29.11%{transform:translateX(-2666px)}34.79%{transform:translateX(-2838px)}37.56%{transform:translateX(-3010px)}38.84%{transform:translateX(-3096px)}39.69%{transform:translateX(-3268px)}40.96%{transform:translateX(-3354px)}40.97%{transform:translateX(-3440px)}41.69%{transform:translateX(-3526px)}41.7%{transform:translateX(-3612px)}42.6%{transform:translateX(-3784px)}43.97%{transform:translateX(-3956px)}43.98%{transform:translateX(-4128px)}44%{transform:translateX(-4214px)}49.32%{transform:translateX(-4300px)}50.56%{transform:translateX(-4386px)}51.35%{transform:translateX(-4472px)}52.59%{transform:translateX(-4558px)}55.1%{transform:translateX(-4730px)}55.23%{transform:translateX(-4902px)}64.8%{transform:translateX(-4988px)}64.81%{transform:translateX(-5074px)}68.44%{transform:translateX(-5246px)}69.32%{transform:translateX(-5332px)}69.33%{transform:translateX(-5418px)}70.23%{transform:translateX(-5504px)}71.32%{transform:translateX(-5590px)}72.29%{transform:translateX(-5676px)}73.72%{transform:translateX(-5762px)}75.36%{transform:translateX(-5848px)}75.87%{transform:translateX(-5934px)}77.1%{transform:translateX(-6020px)}78.09%{transform:translateX(-6106px)}78.42%{transform:translateX(-6192px)}79.13%{transform:translateX(-6278px)}82.06%{transform:translateX(-6450px)}82.07%{transform:translateX(-6536px)}82.09%{transform:translateX(-6622px)}86.68%{transform:translateX(-6708px)}88.01%{transform:translateX(-6794px)}88.95%{transform:translateX(-6880px)}91.15%{transform:translateX(-6966px)}93.35%{transform:translateX(-7052px)}93.36%{transform:translateX(-7138px)}93.48%{transform:translateX(-7310px)}to{transform:translateX(-7482px)}}.a{fill:#161827}.f{fill:#8ce10b}.g{fill:#00d8eb}.h{fill:#5f5f5f}.i{fill:#dfdfdf}.j{fill:#005fd7}.k{fill:#00afff}.l{fill:#878700}.m,.n{fill:#fff;font-weight:700}.n{fill:#00d8eb}</style><g font-size="1.67" font-family="Monaco,Consolas,Menlo,'Bitstream Vera Sans Mono','Powerline Symbols',monospace"><defs><symbol id="1"><text y="1.67" class="f">●</text><text x="2.004" y="1.67" class="g">⍴</text><text x="4.008" y="1.67" class="h">→</text></symbol><symbol id="2"><text y="1.67" class="f">●</text><text x="2.004" y="1.67" class="g">⍴</text><text x="4.008" y="1.67" class="h">→</text><text x="6.012" y="1.67" class="i">enquirer</text><text x="15.03" y="1.67" class="i">multi-select</text><text x="28.056" y="1.67" class="i">-m</text><text x="31.062" y="1.67" class="i">&quot;What</text><text x="37.074" y="1.67" class="i">features</text><text x="46.092" y="1.67" class="i">do</text><text x="49.098" y="1.67" class="i">you</text><text x="53.106" y="1.67" class="i">want?&quot;</text><text x="60.12" y="1.67" class="i">babel</text><text x="66.132" y="1.67" class="i">eslint</text><text x="73.146" y="1.67" class="i">typescript</text></symbol><symbol id="3"><text y="1.67" class="f">●</text><text x="2.004" y="1.67" class="g">⍴</text><text x="4.008" y="1.67" class="h">→</text><text x="6.012" y="1.67" class="j">enquirer</text><text x="15.03" y="1.67" class="k">multi-select</text><text x="28.056" y="1.67" class="k">-m</text><text x="31.062" y="1.67" class="l">&quot;What</text><text x="37.074" y="1.67" class="l">features</text><text x="46.092" y="1.67" class="l">do</text><text x="49.098" y="1.67" class="l">you</text><text x="53.106" y="1.67" class="l">want?&quot;</text><text x="60.12" y="1.67" class="k">babel</text><text x="66.132" y="1.67" class="k">eslint</text><text x="73.146" y="1.67" class="k">typescript</text></symbol><symbol id="4"><text y="1.67" class="g">?</text><text x="2.004" y="1.67" class="m">What</text><text x="7.014" y="1.67" class="m">features</text><text x="16.032" y="1.67" class="m">do</text><text x="19.038" y="1.67" class="m">you</text><text x="23.046" y="1.67" class="m">want?</text><text x="29.058" y="1.67" class="h">›</text></symbol><symbol id="5"><text y="1.67" class="h">✔</text><text x="2.004" y="1.67" class="i">eslint</text></symbol><symbol id="6"><text y="1.67" class="h">✔</text><text x="2.004" y="1.67" class="i">typescript</text></symbol><symbol id="7"><text y="1.67" class="f">✔</text><text x="2.004" y="1.67" class="n">babel</text></symbol><symbol id="8"><text y="1.67" class="f">✔</text><text x="2.004" y="1.67" class="i">babel</text></symbol><symbol id="9"><text y="1.67" class="h">✔</text><text x="2.004" y="1.67" class="n">eslint</text></symbol><symbol id="10"><text y="1.67" class="h">✔</text><text x="2.004" y="1.67" class="n">typescript</text></symbol><symbol id="11"><text y="1.67" class="f">✔</text><text x="2.004" y="1.67" class="n">typescript</text></symbol><symbol id="12"><text y="1.67" class="f">✔</text><text x="2.004" y="1.67" class="m">What</text><text x="7.014" y="1.67" class="m">features</text><text x="16.032" y="1.67" class="m">do</text><text x="19.038" y="1.67" class="m">you</text><text x="23.046" y="1.67" class="m">want?</text><text x="29.058" y="1.67" class="h">·</text><text x="31.062" y="1.67" class="f">babel</text><text x="36.072" y="1.67" class="i">,</text><text x="38.076" y="1.67" class="f">typescript</text></symbol><symbol id="13"><text y="1.67" class="i">babel</text></symbol><symbol id="14"><text y="1.67" class="i">typescript</text></symbol><symbol id="15"><text y="1.67" class="f">●</text><text x="2.004" y="1.67" class="g">⍴</text><text x="4.008" y="1.67" class="h">→</text><text x="6.012" y="1.67" class="j">enquirer</text><text x="15.03" y="1.67" class="k">multi-select</text><text x="28.056" y="1.67" class="k">-m</text><text x="31.062" y="1.67" class="l">&quot;What</text><text x="37.074" y="1.67" class="l">features</text><text x="46.092" y="1.67" class="l">do</text><text x="49.098" y="1.67" class="l">you</text><text x="53.106" y="1.67" class="l">want?&quot;</text><text x="60.12" y="1.67" class="k">babel</text><text x="66.132" y="1.67" class="k">eslint</text><text x="73.146" y="1.67" class="k">typescript</text><text x="84.168" y="1.67" class="i">\</text></symbol><symbol id="16"><text y="1.67" class="f">●</text><text x="2.004" y="1.67" class="g">⍴</text><text x="4.008" y="1.67" class="h">→</text><text x="6.012" y="1.67" class="j">enquirer</text><text x="15.03" y="1.67" class="k">multi-select</text><text x="28.056" y="1.67" class="k">-m</text><text x="31.062" y="1.67" class="l">&quot;What</text><text x="37.074" y="1.67" class="l">features</text><text x="46.092" y="1.67" class="l">do</text><text x="49.098" y="1.67" class="l">you</text><text x="53.106" y="1.67" class="l">want?&quot;</text><text x="60.12" y="1.67" class="k">babel</text><text x="66.132" y="1.67" class="k">eslint</text><text x="73.146" y="1.67" class="k">typescript</text><text x="84.168" y="1.67" fill="red">\</text></symbol><symbol id="17"><text x="6.012" y="1.67" class="k">-s</text></symbol><symbol id="18"><text x="6.012" y="1.67" class="k">-s</text><text x="9.018" y="1.67" class="k">1</text></symbol><symbol id="19"><text x="6.012" y="1.67" class="k">-s</text><text x="9.018" y="1.67" class="k">1</text><text x="11.022" y="1.67" class="k">2</text></symbol><symbol id="20"><text y="1.67" class="f">✔</text><text x="2.004" y="1.67" class="i">eslint</text></symbol><symbol id="21"><text y="1.67" class="f">✔</text><text x="2.004" y="1.67" class="n">eslint</text></symbol><symbol id="22"><text x="6.012" y="1.67" class="k">-s</text><text x="9.018" y="1.67" class="k">1</text><text x="11.022" y="1.67" class="k">2</text><text x="13.026" y="1.67" class="k">--no-inline</text></symbol><symbol id="23"><text y="1.67" class="f">✔</text><text x="2.004" y="1.67" class="m">What</text><text x="7.014" y="1.67" class="m">features</text><text x="16.032" y="1.67" class="m">do</text><text x="19.038" y="1.67" class="m">you</text><text x="23.046" y="1.67" class="m">want?</text><text x="29.058" y="1.67" class="h">·</text></symbol><symbol id="a"><path fill="transparent" d="M0 0h86v19H0z"/></symbol><symbol id="b"><path fill="#d6d6d6" d="M0 0h1.102v2.171H0z"/></symbol></defs><path class="a" d="M0 0h86v39.078H0z"/><g style="animation-duration:17.14938s;animation-iteration-count:infinite;animation-name:r;animation-timing-function:steps(1,end)"><svg width="7568"><svg><use xlink:href="#a"/><use xlink:href="#b" x="-.004"/></svg><svg x="86"><use xlink:href="#a"/><use xlink:href="#b" x="-.004"/></svg><svg x="172"><use xlink:href="#a"/><use xlink:href="#b" x="-.004"/></svg><svg x="258"><use xlink:href="#a"/><use xlink:href="#b" x="-.004"/></svg><svg x="344"><use xlink:href="#a"/><use xlink:href="#b" x="5.996"/><use xlink:href="#1"/></svg><svg x="430"><use xlink:href="#a"/><use xlink:href="#b" x="82.996"/><use xlink:href="#2"/></svg><svg x="516"><use xlink:href="#a"/><use xlink:href="#b" x="-.004"/><use xlink:href="#2"/></svg><svg x="602"><use xlink:href="#a"/><use xlink:href="#b" x="82.996"/><use xlink:href="#2"/></svg><svg x="688"><use xlink:href="#a"/><use xlink:href="#b" x="82.996"/><use xlink:href="#3"/></svg><svg x="774"><use xlink:href="#a"/><use xlink:href="#b" x="-.004" y="2.146"/><use xlink:href="#3"/></svg><svg x="860"><use xlink:href="#a"/><use xlink:href="#b" x="-.004" y="2.146"/><use xlink:href="#3"/></svg><svg x="946"><use xlink:href="#a"/><use xlink:href="#b" x="-.004" y="2.146"/><use xlink:href="#3"/></svg><svg x="1032"><use xlink:href="#a"/><use xlink:href="#b" x="-.004" y="2.146"/><use xlink:href="#3"/></svg><svg x="1118"><use xlink:href="#a"/><use xlink:href="#b" x="-.004" y="2.146"/><use xlink:href="#3"/></svg><svg x="1204"><use xlink:href="#a"/><use xlink:href="#b" x="-.004" y="10.83"/><use xlink:href="#3"/><use xlink:href="#4" y="2.171"/><text y="6.012" class="h">✔</text><text x="2.004" y="6.012" class="n">babel</text><use xlink:href="#5" y="6.513"/><use xlink:href="#6" y="8.684"/></svg><svg x="1290"><use xlink:href="#a"/><use xlink:href="#b" x="-.004" y="10.83"/><use xlink:href="#3"/><use xlink:href="#4" y="2.171"/><use xlink:href="#7" y="4.342"/><use xlink:href="#5" y="6.513"/><use xlink:href="#6" y="8.684"/></svg><svg x="1376"><use xlink:href="#a"/><use xlink:href="#b" x="-.004" y="10.83"/><use xlink:href="#3"/><use xlink:href="#4" y="2.171"/><use xlink:href="#8" y="4.342"/><use xlink:href="#9" y="6.513"/><use xlink:href="#6" y="8.684"/></svg><svg x="1462"><use xlink:href="#a"/><use xlink:href="#b" x="-.004" y="10.83"/><use xlink:href="#3"/><use xlink:href="#4" y="2.171"/><use xlink:href="#8" y="4.342"/><use xlink:href="#5" y="6.513"/><use xlink:href="#10" y="8.684"/></svg><svg x="1548"><use xlink:href="#a"/><use xlink:href="#b" x="-.004" y="4.317"/><use xlink:href="#3"/><use xlink:href="#4" y="2.171"/></svg><svg x="1634"><use xlink:href="#a"/><use xlink:href="#b" x="-.004" y="10.83"/><use xlink:href="#3"/><use xlink:href="#4" y="2.171"/><use xlink:href="#8" y="4.342"/><use xlink:href="#5" y="6.513"/><use xlink:href="#11" y="8.684"/></svg><svg x="1720"><use xlink:href="#a"/><use xlink:href="#b" x="-.004" y="8.659"/><use xlink:href="#3"/><use xlink:href="#12" y="2.171"/><use xlink:href="#13" y="4.342"/><use xlink:href="#14" y="6.513"/></svg><svg x="1806"><use xlink:href="#a"/><use xlink:href="#b" x="-.004" y="8.659"/><use xlink:href="#3"/><use xlink:href="#12" y="2.171"/><use xlink:href="#13" y="4.342"/><use xlink:href="#14" y="6.513"/></svg><svg x="1892"><use xlink:href="#a"/><use xlink:href="#b" x="-.004" y="8.659"/><use xlink:href="#3"/><use xlink:href="#12" y="2.171"/><use xlink:href="#13" y="4.342"/><use xlink:href="#14" y="6.513"/></svg><svg x="1978"><use xlink:href="#a"/><use xlink:href="#b" x="5.996" y="8.659"/><use xlink:href="#3"/><use xlink:href="#12" y="2.171"/><use xlink:href="#13" y="4.342"/><use xlink:href="#14" y="6.513"/><use xlink:href="#1" y="8.684"/></svg><svg x="2064"><use xlink:href="#a"/><use xlink:href="#b" x="82.996" y="8.659"/><use xlink:href="#3"/><use xlink:href="#12" y="2.171"/><use xlink:href="#13" y="4.342"/><use xlink:href="#14" y="6.513"/><use xlink:href="#2" y="8.684"/></svg><svg x="2150"><use xlink:href="#a"/><use xlink:href="#b" x="-.004" y="8.659"/><use xlink:href="#3"/><use xlink:href="#12" y="2.171"/><use xlink:href="#13" y="4.342"/><use xlink:href="#14" y="6.513"/><use xlink:href="#2" y="8.684"/></svg><svg x="2236"><use xlink:href="#a"/><use xlink:href="#b" x="82.996" y="8.659"/><use xlink:href="#3"/><use xlink:href="#12" y="2.171"/><use xlink:href="#13" y="4.342"/><use xlink:href="#14" y="6.513"/><use xlink:href="#2" y="8.684"/></svg><svg x="2322"><use xlink:href="#a"/><use xlink:href="#b" x="82.996" y="8.659"/><use xlink:href="#3"/><use xlink:href="#12" y="2.171"/><use xlink:href="#13" y="4.342"/><use xlink:href="#14" y="6.513"/><use xlink:href="#3" y="8.684"/></svg><svg x="2408"><use xlink:href="#a"/><use xlink:href="#b" x="83.996" y="8.659"/><use xlink:href="#3"/><use xlink:href="#12" y="2.171"/><use xlink:href="#13" y="4.342"/><use xlink:href="#14" y="6.513"/><use xlink:href="#3" y="8.684"/></svg><svg x="2494"><use xlink:href="#a"/><use xlink:href="#b" x="83.996" y="8.659"/><use xlink:href="#3"/><use xlink:href="#12" y="2.171"/><use xlink:href="#13" y="4.342"/><use xlink:href="#14" y="6.513"/><use xlink:href="#3" y="8.684"/></svg><svg x="2580"><use xlink:href="#a"/><use xlink:href="#b" x="84.996" y="8.659"/><use xlink:href="#3"/><use xlink:href="#12" y="2.171"/><use xlink:href="#13" y="4.342"/><use xlink:href="#14" y="6.513"/><use xlink:href="#15" y="8.684"/></svg><svg x="2666"><use xlink:href="#a"/><use xlink:href="#b" x="84.996" y="8.659"/><use xlink:href="#3"/><use xlink:href="#12" y="2.171"/><use xlink:href="#13" y="4.342"/><use xlink:href="#14" y="6.513"/><use xlink:href="#16" y="8.684"/></svg><svg x="2752"><use xlink:href="#a"/><use xlink:href="#b" x="5.996" y="10.83"/><use xlink:href="#3"/><use xlink:href="#12" y="2.171"/><use xlink:href="#13" y="4.342"/><use xlink:href="#14" y="6.513"/><use xlink:href="#16" y="8.684"/></svg><svg x="2838"><use xlink:href="#a"/><use xlink:href="#b" x="5.996" y="10.83"/><use xlink:href="#3"/><use xlink:href="#12" y="2.171"/><use xlink:href="#13" y="4.342"/><use xlink:href="#14" y="6.513"/><use xlink:href="#15" y="8.684"/></svg><svg x="2924"><use xlink:href="#a"/><use xlink:href="#b" x="6.996" y="10.83"/><use xlink:href="#3"/><use xlink:href="#12" y="2.171"/><use xlink:href="#13" y="4.342"/><use xlink:href="#14" y="6.513"/><use xlink:href="#15" y="8.684"/><text x="6.012" y="12.525" class="i">-</text></svg><svg x="3010"><use xlink:href="#a"/><use xlink:href="#b" x="6.996" y="10.83"/><use xlink:href="#3"/><use xlink:href="#12" y="2.171"/><use xlink:href="#13" y="4.342"/><use xlink:href="#14" y="6.513"/><use xlink:href="#15" y="8.684"/><text x="6.012" y="12.525" class="k">-</text></svg><svg x="3096"><use xlink:href="#a"/><use xlink:href="#b" x="7.996" y="10.83"/><use xlink:href="#3"/><use xlink:href="#12" y="2.171"/><use xlink:href="#13" y="4.342"/><use xlink:href="#14" y="6.513"/><use xlink:href="#15" y="8.684"/><use xlink:href="#17" y="10.855"/></svg><svg x="3182"><use xlink:href="#a"/><use xlink:href="#b" x="8.996" y="10.83"/><use xlink:href="#3"/><use xlink:href="#12" y="2.171"/><use xlink:href="#13" y="4.342"/><use xlink:href="#14" y="6.513"/><use xlink:href="#15" y="8.684"/><use xlink:href="#17" y="10.855"/></svg><svg x="3268"><use xlink:href="#a"/><use xlink:href="#b" x="8.996" y="10.83"/><use xlink:href="#3"/><use xlink:href="#12" y="2.171"/><use xlink:href="#13" y="4.342"/><use xlink:href="#14" y="6.513"/><use xlink:href="#15" y="8.684"/><use xlink:href="#17" y="10.855"/></svg><svg x="3354"><use xlink:href="#a"/><use xlink:href="#b" x="9.996" y="10.83"/><use xlink:href="#3"/><use xlink:href="#12" y="2.171"/><use xlink:href="#13" y="4.342"/><use xlink:href="#14" y="6.513"/><use xlink:href="#15" y="8.684"/><text x="6.012" y="12.525" class="k">-s</text><text x="9.018" y="12.525" class="i">1</text></svg><svg x="3440"><use xlink:href="#a"/><use xlink:href="#b" x="9.996" y="10.83"/><use xlink:href="#3"/><use xlink:href="#12" y="2.171"/><use xlink:href="#13" y="4.342"/><use xlink:href="#14" y="6.513"/><use xlink:href="#15" y="8.684"/><use xlink:href="#18" y="10.855"/></svg><svg x="3526"><use xlink:href="#a"/><use xlink:href="#b" x="10.996" y="10.83"/><use xlink:href="#3"/><use xlink:href="#12" y="2.171"/><use xlink:href="#13" y="4.342"/><use xlink:href="#14" y="6.513"/><use xlink:href="#15" y="8.684"/><use xlink:href="#18" y="10.855"/></svg><svg x="3612"><use xlink:href="#a"/><use xlink:href="#b" x="10.996" y="10.83"/><use xlink:href="#3"/><use xlink:href="#12" y="2.171"/><use xlink:href="#13" y="4.342"/><use xlink:href="#14" y="6.513"/><use xlink:href="#15" y="8.684"/><use xlink:href="#18" y="10.855"/></svg><svg x="3698"><use xlink:href="#a"/><use xlink:href="#b" x="11.996" y="10.83"/><use xlink:href="#3"/><use xlink:href="#12" y="2.171"/><use xlink:href="#13" y="4.342"/><use xlink:href="#14" y="6.513"/><use xlink:href="#15" y="8.684"/><text x="6.012" y="12.525" class="k">-s</text><text x="9.018" y="12.525" class="k">1</text><text x="11.022" y="12.525" class="i">2</text></svg><svg x="3784"><use xlink:href="#a"/><use xlink:href="#b" x="11.996" y="10.83"/><use xlink:href="#3"/><use xlink:href="#12" y="2.171"/><use xlink:href="#13" y="4.342"/><use xlink:href="#14" y="6.513"/><use xlink:href="#15" y="8.684"/><use xlink:href="#19" y="10.855"/></svg><svg x="3870"><use xlink:href="#a"/><use xlink:href="#b" x="-.004" y="13.001"/><use xlink:href="#3"/><use xlink:href="#12" y="2.171"/><use xlink:href="#13" y="4.342"/><use xlink:href="#14" y="6.513"/><use xlink:href="#15" y="8.684"/><use xlink:href="#19" y="10.855"/></svg><svg x="3956"><use xlink:href="#a"/><use xlink:href="#b" x="-.004" y="13.001"/><use xlink:href="#3"/><use xlink:href="#12" y="2.171"/><use xlink:href="#13" y="4.342"/><use xlink:href="#14" y="6.513"/><use xlink:href="#15" y="8.684"/><use xlink:href="#19" y="10.855"/></svg><svg x="4042"><use xlink:href="#a"/><use xlink:href="#b" x="-.004" y="13.001"/><use xlink:href="#3"/><use xlink:href="#12" y="2.171"/><use xlink:href="#13" y="4.342"/><use xlink:href="#14" y="6.513"/><use xlink:href="#15" y="8.684"/><use xlink:href="#19" y="10.855"/></svg><svg x="4128"><use xlink:href="#a"/><use xlink:href="#b" x="-.004" y="13.001"/><use xlink:href="#3"/><use xlink:href="#12" y="2.171"/><use xlink:href="#13" y="4.342"/><use xlink:href="#14" y="6.513"/><use xlink:href="#15" y="8.684"/><use xlink:href="#19" y="10.855"/></svg><svg x="4214"><use xlink:href="#a"/><use xlink:href="#b" x="-.004" y="21.685"/><use xlink:href="#3"/><use xlink:href="#12" y="2.171"/><use xlink:href="#13" y="4.342"/><use xlink:href="#14" y="6.513"/><use xlink:href="#15" y="8.684"/><use xlink:href="#19" y="10.855"/><use xlink:href="#4" y="13.026"/><use xlink:href="#7" y="15.197"/><use xlink:href="#20" y="17.368"/><use xlink:href="#6" y="19.539"/></svg><svg x="4300"><use xlink:href="#a"/><use xlink:href="#b" x="-.004" y="21.685"/><use xlink:href="#3"/><use xlink:href="#12" y="2.171"/><use xlink:href="#13" y="4.342"/><use xlink:href="#14" y="6.513"/><use xlink:href="#15" y="8.684"/><use xlink:href="#19" y="10.855"/><use xlink:href="#4" y="13.026"/><use xlink:href="#8" y="15.197"/><use xlink:href="#21" y="17.368"/><use xlink:href="#6" y="19.539"/></svg><svg x="4386"><use xlink:href="#a"/><use xlink:href="#b" x="-.004" y="21.685"/><use xlink:href="#3"/><use xlink:href="#12" y="2.171"/><use xlink:href="#13" y="4.342"/><use xlink:href="#14" y="6.513"/><use xlink:href="#15" y="8.684"/><use xlink:href="#19" y="10.855"/><use xlink:href="#4" y="13.026"/><use xlink:href="#8" y="15.197"/><use xlink:href="#9" y="17.368"/><use xlink:href="#6" y="19.539"/></svg><svg x="4472"><use xlink:href="#a"/><use xlink:href="#b" x="-.004" y="21.685"/><use xlink:href="#3"/><use xlink:href="#12" y="2.171"/><use xlink:href="#13" y="4.342"/><use xlink:href="#14" y="6.513"/><use xlink:href="#15" y="8.684"/><use xlink:href="#19" y="10.855"/><use xlink:href="#4" y="13.026"/><use xlink:href="#8" y="15.197"/><use xlink:href="#5" y="17.368"/><use xlink:href="#10" y="19.539"/></svg><svg x="4558"><use xlink:href="#a"/><use xlink:href="#b" x="-.004" y="21.685"/><use xlink:href="#3"/><use xlink:href="#12" y="2.171"/><use xlink:href="#13" y="4.342"/><use xlink:href="#14" y="6.513"/><use xlink:href="#15" y="8.684"/><use xlink:href="#19" y="10.855"/><use xlink:href="#4" y="13.026"/><use xlink:href="#8" y="15.197"/><use xlink:href="#5" y="17.368"/><use xlink:href="#11" y="19.539"/></svg><svg x="4644"><use xlink:href="#a"/><use xlink:href="#b" x="-.004" y="19.514"/><use xlink:href="#3"/><use xlink:href="#12" y="2.171"/><use xlink:href="#13" y="4.342"/><use xlink:href="#14" y="6.513"/><use xlink:href="#15" y="8.684"/><use xlink:href="#19" y="10.855"/><use xlink:href="#12" y="13.026"/><use xlink:href="#13" y="15.197"/><use xlink:href="#14" y="17.368"/></svg><svg x="4730"><use xlink:href="#a"/><use xlink:href="#b" x="-.004" y="19.514"/><use xlink:href="#3"/><use xlink:href="#12" y="2.171"/><use xlink:href="#13" y="4.342"/><use xlink:href="#14" y="6.513"/><use xlink:href="#15" y="8.684"/><use xlink:href="#19" y="10.855"/><use xlink:href="#12" y="13.026"/><use xlink:href="#13" y="15.197"/><use xlink:href="#14" y="17.368"/></svg><svg x="4816"><use xlink:href="#a"/><use xlink:href="#b" x="-.004" y="19.514"/><use xlink:href="#3"/><use xlink:href="#12" y="2.171"/><use xlink:href="#13" y="4.342"/><use xlink:href="#14" y="6.513"/><use xlink:href="#15" y="8.684"/><use xlink:href="#19" y="10.855"/><use xlink:href="#12" y="13.026"/><use xlink:href="#13" y="15.197"/><use xlink:href="#14" y="17.368"/></svg><svg x="4902"><use xlink:href="#a"/><use xlink:href="#b" x="5.996" y="19.514"/><use xlink:href="#3"/><use xlink:href="#12" y="2.171"/><use xlink:href="#13" y="4.342"/><use xlink:href="#14" y="6.513"/><use xlink:href="#15" y="8.684"/><use xlink:href="#19" y="10.855"/><use xlink:href="#12" y="13.026"/><use xlink:href="#13" y="15.197"/><use xlink:href="#14" y="17.368"/><use xlink:href="#1" y="19.539"/></svg><svg x="4988"><use xlink:href="#a"/><use xlink:href="#b" x="11.996" y="21.685"/><use xlink:href="#3"/><use xlink:href="#12" y="2.171"/><use xlink:href="#13" y="4.342"/><use xlink:href="#14" y="6.513"/><use xlink:href="#15" y="8.684"/><use xlink:href="#19" y="10.855"/><use xlink:href="#12" y="13.026"/><use xlink:href="#13" y="15.197"/><use xlink:href="#14" y="17.368"/><text y="21.209" class="f">●</text><text x="2.004" y="21.209" class="g">⍴</text><text x="4.008" y="21.209" class="h">→</text><text x="6.012" y="21.209" class="i">enquirer</text><text x="15.03" y="21.209" class="i">multi-select</text><text x="28.056" y="21.209" class="i">-m</text><text x="31.062" y="21.209" class="i">&quot;What</text><text x="37.074" y="21.209" class="i">features</text><text x="46.092" y="21.209" class="i">do</text><text x="49.098" y="21.209" class="i">you</text><text x="53.106" y="21.209" class="i">want?&quot;</text><text x="60.12" y="21.209" class="i">babel</text><text x="66.132" y="21.209" class="i">eslint</text><text x="73.146" y="21.209" class="i">typescript</text><text x="84.168" y="21.209" class="i">\</text><text x="6.012" y="23.38" class="i">-s</text><text x="9.018" y="23.38" class="i">1</text><text x="11.022" y="23.38" class="i">2</text></svg><svg x="5074"><use xlink:href="#a"/><use xlink:href="#b" x="11.996" y="21.685"/><use xlink:href="#3"/><use xlink:href="#12" y="2.171"/><use xlink:href="#13" y="4.342"/><use xlink:href="#14" y="6.513"/><use xlink:href="#15" y="8.684"/><use xlink:href="#19" y="10.855"/><use xlink:href="#12" y="13.026"/><use xlink:href="#13" y="15.197"/><use xlink:href="#14" y="17.368"/><use xlink:href="#15" y="19.539"/><use xlink:href="#19" y="21.71"/></svg><svg x="5160"><use xlink:href="#a"/><use xlink:href="#b" x="12.996" y="21.685"/><use xlink:href="#3"/><use xlink:href="#12" y="2.171"/><use xlink:href="#13" y="4.342"/><use xlink:href="#14" y="6.513"/><use xlink:href="#15" y="8.684"/><use xlink:href="#19" y="10.855"/><use xlink:href="#12" y="13.026"/><use xlink:href="#13" y="15.197"/><use xlink:href="#14" y="17.368"/><use xlink:href="#15" y="19.539"/><use xlink:href="#19" y="21.71"/></svg><svg x="5246"><use xlink:href="#a"/><use xlink:href="#b" x="12.996" y="21.685"/><use xlink:href="#3"/><use xlink:href="#12" y="2.171"/><use xlink:href="#13" y="4.342"/><use xlink:href="#14" y="6.513"/><use xlink:href="#15" y="8.684"/><use xlink:href="#19" y="10.855"/><use xlink:href="#12" y="13.026"/><use xlink:href="#13" y="15.197"/><use xlink:href="#14" y="17.368"/><use xlink:href="#15" y="19.539"/><use xlink:href="#19" y="21.71"/></svg><svg x="5332"><use xlink:href="#a"/><use xlink:href="#b" x="13.996" y="21.685"/><use xlink:href="#3"/><use xlink:href="#12" y="2.171"/><use xlink:href="#13" y="4.342"/><use xlink:href="#14" y="6.513"/><use xlink:href="#15" y="8.684"/><use xlink:href="#19" y="10.855"/><use xlink:href="#12" y="13.026"/><use xlink:href="#13" y="15.197"/><use xlink:href="#14" y="17.368"/><use xlink:href="#15" y="19.539"/><text x="6.012" y="23.38" class="k">-s</text><text x="9.018" y="23.38" class="k">1</text><text x="11.022" y="23.38" class="k">2</text><text x="13.026" y="23.38" class="i">-</text></svg><svg x="5418"><use xlink:href="#a"/><use xlink:href="#b" x="13.996" y="21.685"/><use xlink:href="#3"/><use xlink:href="#12" y="2.171"/><use xlink:href="#13" y="4.342"/><use xlink:href="#14" y="6.513"/><use xlink:href="#15" y="8.684"/><use xlink:href="#19" y="10.855"/><use xlink:href="#12" y="13.026"/><use xlink:href="#13" y="15.197"/><use xlink:href="#14" y="17.368"/><use xlink:href="#15" y="19.539"/><text x="6.012" y="23.38" class="k">-s</text><text x="9.018" y="23.38" class="k">1</text><text x="11.022" y="23.38" class="k">2</text><text x="13.026" y="23.38" class="k">-</text></svg><svg x="5504"><use xlink:href="#a"/><use xlink:href="#b" x="14.996" y="21.685"/><use xlink:href="#3"/><use xlink:href="#12" y="2.171"/><use xlink:href="#13" y="4.342"/><use xlink:href="#14" y="6.513"/><use xlink:href="#15" y="8.684"/><use xlink:href="#19" y="10.855"/><use xlink:href="#12" y="13.026"/><use xlink:href="#13" y="15.197"/><use xlink:href="#14" y="17.368"/><use xlink:href="#15" y="19.539"/><text x="6.012" y="23.38" class="k">-s</text><text x="9.018" y="23.38" class="k">1</text><text x="11.022" y="23.38" class="k">2</text><text x="13.026" y="23.38" class="k">--</text></svg><svg x="5590"><use xlink:href="#a"/><use xlink:href="#b" x="15.996" y="21.685"/><use xlink:href="#3"/><use xlink:href="#12" y="2.171"/><use xlink:href="#13" y="4.342"/><use xlink:href="#14" y="6.513"/><use xlink:href="#15" y="8.684"/><use xlink:href="#19" y="10.855"/><use xlink:href="#12" y="13.026"/><use xlink:href="#13" y="15.197"/><use xlink:href="#14" y="17.368"/><use xlink:href="#15" y="19.539"/><text x="6.012" y="23.38" class="k">-s</text><text x="9.018" y="23.38" class="k">1</text><text x="11.022" y="23.38" class="k">2</text><text x="13.026" y="23.38" class="k">--n</text></svg><svg x="5676"><use xlink:href="#a"/><use xlink:href="#b" x="16.996" y="21.685"/><use xlink:href="#3"/><use xlink:href="#12" y="2.171"/><use xlink:href="#13" y="4.342"/><use xlink:href="#14" y="6.513"/><use xlink:href="#15" y="8.684"/><use xlink:href="#19" y="10.855"/><use xlink:href="#12" y="13.026"/><use xlink:href="#13" y="15.197"/><use xlink:href="#14" y="17.368"/><use xlink:href="#15" y="19.539"/><text x="6.012" y="23.38" class="k">-s</text><text x="9.018" y="23.38" class="k">1</text><text x="11.022" y="23.38" class="k">2</text><text x="13.026" y="23.38" class="k">--no</text></svg><svg x="5762"><use xlink:href="#a"/><use xlink:href="#b" x="17.996" y="21.685"/><use xlink:href="#3"/><use xlink:href="#12" y="2.171"/><use xlink:href="#13" y="4.342"/><use xlink:href="#14" y="6.513"/><use xlink:href="#15" y="8.684"/><use xlink:href="#19" y="10.855"/><use xlink:href="#12" y="13.026"/><use xlink:href="#13" y="15.197"/><use xlink:href="#14" y="17.368"/><use xlink:href="#15" y="19.539"/><text x="6.012" y="23.38" class="k">-s</text><text x="9.018" y="23.38" class="k">1</text><text x="11.022" y="23.38" class="k">2</text><text x="13.026" y="23.38" class="k">--no-</text></svg><svg x="5848"><use xlink:href="#a"/><use xlink:href="#b" x="18.996" y="21.685"/><use xlink:href="#3"/><use xlink:href="#12" y="2.171"/><use xlink:href="#13" y="4.342"/><use xlink:href="#14" y="6.513"/><use xlink:href="#15" y="8.684"/><use xlink:href="#19" y="10.855"/><use xlink:href="#12" y="13.026"/><use xlink:href="#13" y="15.197"/><use xlink:href="#14" y="17.368"/><use xlink:href="#15" y="19.539"/><text x="6.012" y="23.38" class="k">-s</text><text x="9.018" y="23.38" class="k">1</text><text x="11.022" y="23.38" class="k">2</text><text x="13.026" y="23.38" class="k">--no-i</text></svg><svg x="5934"><use xlink:href="#a"/><use xlink:href="#b" x="19.996" y="21.685"/><use xlink:href="#3"/><use xlink:href="#12" y="2.171"/><use xlink:href="#13" y="4.342"/><use xlink:href="#14" y="6.513"/><use xlink:href="#15" y="8.684"/><use xlink:href="#19" y="10.855"/><use xlink:href="#12" y="13.026"/><use xlink:href="#13" y="15.197"/><use xlink:href="#14" y="17.368"/><use xlink:href="#15" y="19.539"/><text x="6.012" y="23.38" class="k">-s</text><text x="9.018" y="23.38" class="k">1</text><text x="11.022" y="23.38" class="k">2</text><text x="13.026" y="23.38" class="k">--no-in</text></svg><svg x="6020"><use xlink:href="#a"/><use xlink:href="#b" x="20.996" y="21.685"/><use xlink:href="#3"/><use xlink:href="#12" y="2.171"/><use xlink:href="#13" y="4.342"/><use xlink:href="#14" y="6.513"/><use xlink:href="#15" y="8.684"/><use xlink:href="#19" y="10.855"/><use xlink:href="#12" y="13.026"/><use xlink:href="#13" y="15.197"/><use xlink:href="#14" y="17.368"/><use xlink:href="#15" y="19.539"/><text x="6.012" y="23.38" class="k">-s</text><text x="9.018" y="23.38" class="k">1</text><text x="11.022" y="23.38" class="k">2</text><text x="13.026" y="23.38" class="k">--no-inl</text></svg><svg x="6106"><use xlink:href="#a"/><use xlink:href="#b" x="21.996" y="21.685"/><use xlink:href="#3"/><use xlink:href="#12" y="2.171"/><use xlink:href="#13" y="4.342"/><use xlink:href="#14" y="6.513"/><use xlink:href="#15" y="8.684"/><use xlink:href="#19" y="10.855"/><use xlink:href="#12" y="13.026"/><use xlink:href="#13" y="15.197"/><use xlink:href="#14" y="17.368"/><use xlink:href="#15" y="19.539"/><text x="6.012" y="23.38" class="k">-s</text><text x="9.018" y="23.38" class="k">1</text><text x="11.022" y="23.38" class="k">2</text><text x="13.026" y="23.38" class="k">--no-inli</text></svg><svg x="6192"><use xlink:href="#a"/><use xlink:href="#b" x="22.996" y="21.685"/><use xlink:href="#3"/><use xlink:href="#12" y="2.171"/><use xlink:href="#13" y="4.342"/><use xlink:href="#14" y="6.513"/><use xlink:href="#15" y="8.684"/><use xlink:href="#19" y="10.855"/><use xlink:href="#12" y="13.026"/><use xlink:href="#13" y="15.197"/><use xlink:href="#14" y="17.368"/><use xlink:href="#15" y="19.539"/><text x="6.012" y="23.38" class="k">-s</text><text x="9.018" y="23.38" class="k">1</text><text x="11.022" y="23.38" class="k">2</text><text x="13.026" y="23.38" class="k">--no-inlin</text></svg><svg x="6278"><use xlink:href="#a"/><use xlink:href="#b" x="23.996" y="21.685"/><use xlink:href="#3"/><use xlink:href="#12" y="2.171"/><use xlink:href="#13" y="4.342"/><use xlink:href="#14" y="6.513"/><use xlink:href="#15" y="8.684"/><use xlink:href="#19" y="10.855"/><use xlink:href="#12" y="13.026"/><use xlink:href="#13" y="15.197"/><use xlink:href="#14" y="17.368"/><use xlink:href="#15" y="19.539"/><use xlink:href="#22" y="21.71"/></svg><svg x="6364"><use xlink:href="#a"/><use xlink:href="#b" x="-.004" y="23.856"/><use xlink:href="#3"/><use xlink:href="#12" y="2.171"/><use xlink:href="#13" y="4.342"/><use xlink:href="#14" y="6.513"/><use xlink:href="#15" y="8.684"/><use xlink:href="#19" y="10.855"/><use xlink:href="#12" y="13.026"/><use xlink:href="#13" y="15.197"/><use xlink:href="#14" y="17.368"/><use xlink:href="#15" y="19.539"/><use xlink:href="#22" y="21.71"/></svg><svg x="6450"><use xlink:href="#a"/><use xlink:href="#b" x="-.004" y="23.856"/><use xlink:href="#3"/><use xlink:href="#12" y="2.171"/><use xlink:href="#13" y="4.342"/><use xlink:href="#14" y="6.513"/><use xlink:href="#15" y="8.684"/><use xlink:href="#19" y="10.855"/><use xlink:href="#12" y="13.026"/><use xlink:href="#13" y="15.197"/><use xlink:href="#14" y="17.368"/><use xlink:href="#15" y="19.539"/><use xlink:href="#22" y="21.71"/></svg><svg x="6536"><use xlink:href="#a"/><use xlink:href="#b" x="-.004" y="23.856"/><use xlink:href="#3"/><use xlink:href="#12" y="2.171"/><use xlink:href="#13" y="4.342"/><use xlink:href="#14" y="6.513"/><use xlink:href="#15" y="8.684"/><use xlink:href="#19" y="10.855"/><use xlink:href="#12" y="13.026"/><use xlink:href="#13" y="15.197"/><use xlink:href="#14" y="17.368"/><use xlink:href="#15" y="19.539"/><use xlink:href="#22" y="21.71"/></svg><svg x="6622"><use xlink:href="#a"/><use xlink:href="#b" x="-.004" y="32.54"/><use xlink:href="#3"/><use xlink:href="#12" y="2.171"/><use xlink:href="#13" y="4.342"/><use xlink:href="#14" y="6.513"/><use xlink:href="#15" y="8.684"/><use xlink:href="#19" y="10.855"/><use xlink:href="#12" y="13.026"/><use xlink:href="#13" y="15.197"/><use xlink:href="#14" y="17.368"/><use xlink:href="#15" y="19.539"/><use xlink:href="#22" y="21.71"/><use xlink:href="#4" y="23.881"/><use xlink:href="#7" y="26.052"/><use xlink:href="#20" y="28.223"/><use xlink:href="#6" y="30.394"/></svg><svg x="6708"><use xlink:href="#a"/><use xlink:href="#b" x="-.004" y="32.54"/><use xlink:href="#3"/><use xlink:href="#12" y="2.171"/><use xlink:href="#13" y="4.342"/><use xlink:href="#14" y="6.513"/><use xlink:href="#15" y="8.684"/><use xlink:href="#19" y="10.855"/><use xlink:href="#12" y="13.026"/><use xlink:href="#13" y="15.197"/><use xlink:href="#14" y="17.368"/><use xlink:href="#15" y="19.539"/><use xlink:href="#22" y="21.71"/><use xlink:href="#4" y="23.881"/><use xlink:href="#8" y="26.052"/><use xlink:href="#21" y="28.223"/><use xlink:href="#6" y="30.394"/></svg><svg x="6794"><use xlink:href="#a"/><use xlink:href="#b" x="-.004" y="32.54"/><use xlink:href="#3"/><use xlink:href="#12" y="2.171"/><use xlink:href="#13" y="4.342"/><use xlink:href="#14" y="6.513"/><use xlink:href="#15" y="8.684"/><use xlink:href="#19" y="10.855"/><use xlink:href="#12" y="13.026"/><use xlink:href="#13" y="15.197"/><use xlink:href="#14" y="17.368"/><use xlink:href="#15" y="19.539"/><use xlink:href="#22" y="21.71"/><use xlink:href="#4" y="23.881"/><use xlink:href="#8" y="26.052"/><use xlink:href="#9" y="28.223"/><use xlink:href="#6" y="30.394"/></svg><svg x="6880"><use xlink:href="#a"/><use xlink:href="#b" x="-.004" y="32.54"/><use xlink:href="#3"/><use xlink:href="#12" y="2.171"/><use xlink:href="#13" y="4.342"/><use xlink:href="#14" y="6.513"/><use xlink:href="#15" y="8.684"/><use xlink:href="#19" y="10.855"/><use xlink:href="#12" y="13.026"/><use xlink:href="#13" y="15.197"/><use xlink:href="#14" y="17.368"/><use xlink:href="#15" y="19.539"/><use xlink:href="#22" y="21.71"/><use xlink:href="#4" y="23.881"/><use xlink:href="#8" y="26.052"/><use xlink:href="#5" y="28.223"/><use xlink:href="#10" y="30.394"/></svg><svg x="6966"><use xlink:href="#a"/><use xlink:href="#b" x="-.004" y="32.54"/><use xlink:href="#3"/><use xlink:href="#12" y="2.171"/><use xlink:href="#13" y="4.342"/><use xlink:href="#14" y="6.513"/><use xlink:href="#15" y="8.684"/><use xlink:href="#19" y="10.855"/><use xlink:href="#12" y="13.026"/><use xlink:href="#13" y="15.197"/><use xlink:href="#14" y="17.368"/><use xlink:href="#15" y="19.539"/><use xlink:href="#22" y="21.71"/><use xlink:href="#4" y="23.881"/><use xlink:href="#8" y="26.052"/><use xlink:href="#5" y="28.223"/><use xlink:href="#11" y="30.394"/></svg><svg x="7052"><use xlink:href="#a"/><use xlink:href="#b" x="-.004" y="30.369"/><use xlink:href="#3"/><use xlink:href="#12" y="2.171"/><use xlink:href="#13" y="4.342"/><use xlink:href="#14" y="6.513"/><use xlink:href="#15" y="8.684"/><use xlink:href="#19" y="10.855"/><use xlink:href="#12" y="13.026"/><use xlink:href="#13" y="15.197"/><use xlink:href="#14" y="17.368"/><use xlink:href="#15" y="19.539"/><use xlink:href="#22" y="21.71"/><use xlink:href="#23" y="23.881"/><use xlink:href="#13" y="26.052"/><use xlink:href="#14" y="28.223"/></svg><svg x="7138"><use xlink:href="#a"/><use xlink:href="#b" x="-.004" y="30.369"/><use xlink:href="#3"/><use xlink:href="#12" y="2.171"/><use xlink:href="#13" y="4.342"/><use xlink:href="#14" y="6.513"/><use xlink:href="#15" y="8.684"/><use xlink:href="#19" y="10.855"/><use xlink:href="#12" y="13.026"/><use xlink:href="#13" y="15.197"/><use xlink:href="#14" y="17.368"/><use xlink:href="#15" y="19.539"/><use xlink:href="#22" y="21.71"/><use xlink:href="#23" y="23.881"/><use xlink:href="#13" y="26.052"/><use xlink:href="#14" y="28.223"/></svg><svg x="7224"><use xlink:href="#a"/><use xlink:href="#b" x="-.004" y="30.369"/><use xlink:href="#3"/><use xlink:href="#12" y="2.171"/><use xlink:href="#13" y="4.342"/><use xlink:href="#14" y="6.513"/><use xlink:href="#15" y="8.684"/><use xlink:href="#19" y="10.855"/><use xlink:href="#12" y="13.026"/><use xlink:href="#13" y="15.197"/><use xlink:href="#14" y="17.368"/><use xlink:href="#15" y="19.539"/><use xlink:href="#22" y="21.71"/><use xlink:href="#23" y="23.881"/><use xlink:href="#13" y="26.052"/><use xlink:href="#14" y="28.223"/></svg><svg x="7310"><use xlink:href="#a"/><use xlink:href="#b" x="5.996" y="30.369"/><use xlink:href="#3"/><use xlink:href="#12" y="2.171"/><use xlink:href="#13" y="4.342"/><use xlink:href="#14" y="6.513"/><use xlink:href="#15" y="8.684"/><use xlink:href="#19" y="10.855"/><use xlink:href="#12" y="13.026"/><use xlink:href="#13" y="15.197"/><use xlink:href="#14" y="17.368"/><use xlink:href="#15" y="19.539"/><use xlink:href="#22" y="21.71"/><use xlink:href="#23" y="23.881"/><use xlink:href="#13" y="26.052"/><use xlink:href="#14" y="28.223"/><use xlink:href="#1" y="30.394"/></svg><svg x="7396"><use xlink:href="#a"/><use xlink:href="#b" x="-.004" y="32.54"/><use xlink:href="#3"/><use xlink:href="#12" y="2.171"/><use xlink:href="#13" y="4.342"/><use xlink:href="#14" y="6.513"/><use xlink:href="#15" y="8.684"/><use xlink:href="#19" y="10.855"/><use xlink:href="#12" y="13.026"/><use xlink:href="#13" y="15.197"/><use xlink:href="#14" y="17.368"/><use xlink:href="#15" y="19.539"/><use xlink:href="#22" y="21.71"/><use xlink:href="#23" y="23.881"/><use xlink:href="#13" y="26.052"/><use xlink:href="#14" y="28.223"/><use xlink:href="#1" y="30.394"/></svg><svg x="7482"><use xlink:href="#a"/><use xlink:href="#b" x="-.004" y="32.54"/><use xlink:href="#3"/><use xlink:href="#12" y="2.171"/><use xlink:href="#13" y="4.342"/><use xlink:href="#14" y="6.513"/><use xlink:href="#15" y="8.684"/><use xlink:href="#19" y="10.855"/><use xlink:href="#12" y="13.026"/><use xlink:href="#13" y="15.197"/><use xlink:href="#14" y="17.368"/><use xlink:href="#15" y="19.539"/><use xlink:href="#22" y="21.71"/><use xlink:href="#23" y="23.881"/><use xlink:href="#13" y="26.052"/><use xlink:href="#14" y="28.223"/><use xlink:href="#1" y="30.394"/></svg></svg></g></g></svg></svg>
