<svg xmlns="http://www.w3.org/2000/svg" xmlns:xlink="http://www.w3.org/1999/xlink" width="840" height="385.65"><rect width="840" height="385.65" rx="5" ry="5" class="a"/><svg y="0%" x="0%"><circle cx="20" cy="20" r="6" fill="#ff5f58"/><circle cx="40" cy="20" r="6" fill="#ffbd2e"/><circle cx="60" cy="20" r="6" fill="#18c132"/></svg><svg height="325.65" viewBox="0 0 80 32.565" width="800" x="15" xmlns="http://www.w3.org/2000/svg" xmlns:xlink="http://www.w3.org/1999/xlink" y="50"><style>@keyframes s{0%{transform:translateX(-160px)}3.07%{transform:translateX(-240px)}3.14%{transform:translateX(-480px)}6.31%{transform:translateX(-560px)}6.32%{transform:translateX(-880px)}6.34%{transform:translateX(-960px)}13.26%{transform:translateX(-1040px)}13.27%{transform:translateX(-1120px)}13.35%{transform:translateX(-1280px)}15.95%{transform:translateX(-1360px)}16.02%{transform:translateX(-1440px)}16.03%{transform:translateX(-1600px)}17.58%{transform:translateX(-1760px)}17.6%{transform:translateX(-1840px)}18.37%{transform:translateX(-2000px)}18.96%{transform:translateX(-2080px)}20.89%{transform:translateX(-2480px)}20.91%{transform:translateX(-2560px)}22.35%{transform:translateX(-2720px)}22.44%{transform:translateX(-2880px)}25.93%{transform:translateX(-2960px)}26.03%{transform:translateX(-3040px)}26.04%{transform:translateX(-3280px)}27.6%{transform:translateX(-3440px)}28.45%{transform:translateX(-3600px)}29.09%{transform:translateX(-3680px)}29.1%{transform:translateX(-3760px)}30.93%{transform:translateX(-3920px)}34.05%{transform:translateX(-4080px)}37.39%{transform:translateX(-4240px)}38.04%{transform:translateX(-4320px)}38.05%{transform:translateX(-4480px)}39.62%{transform:translateX(-4640px)}40.82%{transform:translateX(-4800px)}43.41%{transform:translateX(-4960px)}44.26%{transform:translateX(-5040px)}44.27%{transform:translateX(-5120px)}45.78%{transform:translateX(-5200px)}46.22%{transform:translateX(-5280px)}46.66%{transform:translateX(-5360px)}46.67%{transform:translateX(-5440px)}48.77%{transform:translateX(-5600px)}49.95%{transform:translateX(-5760px)}52.72%{transform:translateX(-5920px)}53.03%{transform:translateX(-6000px)}53.49%{transform:translateX(-6080px)}54.06%{transform:translateX(-6160px)}54.38%{transform:translateX(-6240px)}54.96%{transform:translateX(-6320px)}55.37%{transform:translateX(-6400px)}55.73%{transform:translateX(-6480px)}56.51%{transform:translateX(-6560px)}57.05%{transform:translateX(-6640px)}57.54%{transform:translateX(-6720px)}57.94%{transform:translateX(-6800px)}58.33%{transform:translateX(-6880px)}58.9%{transform:translateX(-6960px)}59.24%{transform:translateX(-7040px)}60.14%{transform:translateX(-7120px)}60.84%{transform:translateX(-7200px)}61.12%{transform:translateX(-7280px)}62.35%{transform:translateX(-7360px)}66.39%{transform:translateX(-7680px)}66.42%{transform:translateX(-7760px)}74.38%{transform:translateX(-7840px)}78.34%{transform:translateX(-7920px)}86.41%{transform:translateX(-8000px)}95.4%{transform:translateX(-8160px)}95.49%{transform:translateX(-8320px)}to{transform:translateX(-8480px)}}.a{fill:#161827}.f{fill:#8ce10b}.g{fill:#00d8eb}.h{fill:#5f5f5f}.i{fill:#dfdfdf}.j{fill:#005fd7}.k{fill:#00afff}.l{fill:#878700}.m{fill:#fff;font-weight:700}.n{fill:#585858}.o{fill:red}.p{fill:#fb000a}.u{fill:#878700;text-decoration:underline}</style><g font-size="1.67" font-family="Monaco,Consolas,Menlo,'Bitstream Vera Sans Mono','Powerline Symbols',monospace"><defs><symbol id="1"><text y="1.67" class="f">●</text><text x="2.004" y="1.67" class="g">⍴</text><text x="4.008" y="1.67" class="h">→</text></symbol><symbol id="2"><text y="1.67" class="f">●</text><text x="2.004" y="1.67" class="g">⍴</text><text x="4.008" y="1.67" class="h">→</text><text x="6.012" y="1.67" class="i">enquirer</text><text x="15.03" y="1.67" class="i">secret</text><text x="22.044" y="1.67" class="i">-m</text><text x="25.05" y="1.67" class="i">&quot;What</text><text x="31.062" y="1.67" class="i">is</text><text x="34.068" y="1.67" class="i">your</text><text x="39.078" y="1.67" class="i">github</text><text x="46.092" y="1.67" class="i">token?&quot;</text></symbol><symbol id="3"><text y="1.67" class="f">●</text><text x="2.004" y="1.67" class="g">⍴</text><text x="4.008" y="1.67" class="h">→</text><text x="6.012" y="1.67" class="j">enquirer</text><text x="15.03" y="1.67" class="k">secret</text><text x="22.044" y="1.67" class="k">-m</text><text x="25.05" y="1.67" class="l">&quot;What</text><text x="31.062" y="1.67" class="l">is</text><text x="34.068" y="1.67" class="l">your</text><text x="39.078" y="1.67" class="l">github</text><text x="46.092" y="1.67" class="l">token?&quot;</text></symbol><symbol id="4"><text y="1.67" class="g">?</text><text x="2.004" y="1.67" class="m">What</text><text x="7.014" y="1.67" class="m">is</text><text x="10.02" y="1.67" class="m">your</text><text x="15.03" y="1.67" class="m">github</text><text x="22.044" y="1.67" class="m">token?</text><text x="29.058" y="1.67" class="h">›</text></symbol><symbol id="5"><text y="1.67" class="f">✔</text><text x="2.004" y="1.67" class="m">What</text><text x="7.014" y="1.67" class="m">is</text><text x="10.02" y="1.67" class="m">your</text><text x="15.03" y="1.67" class="m">github</text><text x="22.044" y="1.67" class="m">token?</text><text x="29.058" y="1.67" class="h">·</text><text x="31.062" y="1.67" class="f">********</text></symbol><symbol id="6"><text y="1.67" class="i">secret</text></symbol><symbol id="7"><text y="1.67" class="f">●</text><text x="2.004" y="1.67" class="g">⍴</text><text x="4.008" y="1.67" class="h">→</text><text x="6.012" y="1.67" class="j">enquirer</text><text x="15.03" y="1.67" class="k">secret</text><text x="22.044" y="1.67" class="k">-m</text><text x="25.05" y="1.67" class="l">&quot;What</text><text x="31.062" y="1.67" class="l">is</text><text x="34.068" y="1.67" class="l">your</text><text x="39.078" y="1.67" class="l">github</text><text x="46.092" y="1.67" class="l">token?&quot;</text><text x="54.108" y="1.67" class="n">-a</text></symbol><symbol id="8"><text y="1.67" class="f">●</text><text x="2.004" y="1.67" class="g">⍴</text><text x="4.008" y="1.67" class="h">→</text><text x="6.012" y="1.67" class="j">enquirer</text><text x="15.03" y="1.67" class="k">secret</text><text x="22.044" y="1.67" class="k">-m</text><text x="25.05" y="1.67" class="l">&quot;What</text><text x="31.062" y="1.67" class="l">is</text><text x="34.068" y="1.67" class="l">your</text><text x="39.078" y="1.67" class="l">github</text><text x="46.092" y="1.67" class="l">token?&quot;</text><text x="54.108" y="1.67" class="i">-</text><text x="55.11" y="1.67" class="n">a</text></symbol><symbol id="9"><text y="1.67" class="f">●</text><text x="2.004" y="1.67" class="g">⍴</text><text x="4.008" y="1.67" class="h">→</text><text x="6.012" y="1.67" class="j">enquirer</text><text x="15.03" y="1.67" class="k">secret</text><text x="22.044" y="1.67" class="k">-m</text><text x="25.05" y="1.67" class="l">&quot;What</text><text x="31.062" y="1.67" class="l">is</text><text x="34.068" y="1.67" class="l">your</text><text x="39.078" y="1.67" class="l">github</text><text x="46.092" y="1.67" class="l">token?&quot;</text><text x="54.108" y="1.67" class="k">-</text><text x="55.11" y="1.67" class="n">a</text></symbol><symbol id="10"><text y="1.67" class="f">●</text><text x="2.004" y="1.67" class="g">⍴</text><text x="4.008" y="1.67" class="h">→</text><text x="6.012" y="1.67" class="j">enquirer</text><text x="15.03" y="1.67" class="k">secret</text><text x="22.044" y="1.67" class="k">-m</text><text x="25.05" y="1.67" class="l">&quot;What</text><text x="31.062" y="1.67" class="l">is</text><text x="34.068" y="1.67" class="l">your</text><text x="39.078" y="1.67" class="l">github</text><text x="46.092" y="1.67" class="l">token?&quot;</text><text x="54.108" y="1.67" class="k">-a</text></symbol><symbol id="11"><text y="1.67" class="f">●</text><text x="2.004" y="1.67" class="g">⍴</text><text x="4.008" y="1.67" class="h">→</text><text x="6.012" y="1.67" class="j">enquirer</text><text x="15.03" y="1.67" class="k">secret</text><text x="22.044" y="1.67" class="k">-m</text><text x="25.05" y="1.67" class="l">&quot;What</text><text x="31.062" y="1.67" class="l">is</text><text x="34.068" y="1.67" class="l">your</text><text x="39.078" y="1.67" class="l">github</text><text x="46.092" y="1.67" class="l">token?&quot;</text><text x="54.108" y="1.67" class="k">-c</text><text x="57.114" y="1.67" class="l">&quot;Please</text><text x="65.13" y="1.67" class="l">confirm?&quot;</text></symbol><symbol id="12"><text y="1.67" class="f">●</text><text x="2.004" y="1.67" class="g">⍴</text><text x="4.008" y="1.67" class="h">→</text><text x="6.012" y="1.67" class="j">enquirer</text><text x="15.03" y="1.67" class="k">secret</text><text x="22.044" y="1.67" class="k">-m</text><text x="25.05" y="1.67" class="l">&quot;What</text><text x="31.062" y="1.67" class="l">is</text><text x="34.068" y="1.67" class="l">your</text><text x="39.078" y="1.67" class="l">github</text><text x="46.092" y="1.67" class="l">token?&quot;</text><text x="54.108" y="1.67" class="k">-c</text><text x="57.114" y="1.67" class="l">&quot;Please</text><text x="65.13" y="1.67" class="l">confirm?&quot;</text><text x="75.15" y="1.67" class="i">\</text></symbol><symbol id="13"><text y="1.67" class="f">●</text><text x="2.004" y="1.67" class="g">⍴</text><text x="4.008" y="1.67" class="h">→</text><text x="6.012" y="1.67" class="j">enquirer</text><text x="15.03" y="1.67" class="k">secret</text><text x="22.044" y="1.67" class="k">-m</text><text x="25.05" y="1.67" class="l">&quot;What</text><text x="31.062" y="1.67" class="l">is</text><text x="34.068" y="1.67" class="l">your</text><text x="39.078" y="1.67" class="l">github</text><text x="46.092" y="1.67" class="l">token?&quot;</text><text x="54.108" y="1.67" class="k">-c</text><text x="57.114" y="1.67" class="l">&quot;Please</text><text x="65.13" y="1.67" class="l">confirm?&quot;</text><text x="75.15" y="1.67" class="o">\</text></symbol><symbol id="14"><text x="6.012" y="1.67" class="k">-</text></symbol><symbol id="15"><text x="6.012" y="1.67" class="k">-e</text></symbol><symbol id="16"><text x="6.012" y="1.67" class="k">-e</text><text x="9.018" y="1.67" class="l">&quot;Tokens</text><text x="17.034" y="1.67" class="l">do</text><text x="20.04" y="1.67" class="l">not</text><text x="24.048" y="1.67" class="l">match&quot;</text></symbol><symbol id="17"><text y="1.67" class="g">?</text><text x="2.004" y="1.67" class="m">Please</text><text x="9.018" y="1.67" class="m">confirm?</text><text x="18.036" y="1.67" class="h">›</text></symbol><symbol id="18"><text y="1.67" class="p">✘</text><text x="2.004" y="1.67" class="p">Tokens</text><text x="9.018" y="1.67" class="p">do</text><text x="12.024" y="1.67" class="p">not</text><text x="16.032" y="1.67" class="p">match</text></symbol><symbol id="a"><path fill="transparent" d="M0 0h80v16H0z"/></symbol><symbol id="b"><path fill="#d6d6d6" d="M0 0h1.102v2.171H0z"/></symbol></defs><path class="a" d="M0 0h80v32.565H0z"/><g style="animation-duration:25.866919s;animation-iteration-count:infinite;animation-name:s;animation-timing-function:steps(1,end)"><svg width="8560"><svg><use xlink:href="#a"/><use xlink:href="#b" x="-.004"/></svg><svg x="80"><use xlink:href="#a"/><use xlink:href="#b" x="-.004"/></svg><svg x="160"><use xlink:href="#a"/><use xlink:href="#b" x="5.996"/><use xlink:href="#1"/></svg><svg x="240"><use xlink:href="#a"/><use xlink:href="#b" x="52.996"/><use xlink:href="#2"/></svg><svg x="320"><use xlink:href="#a"/><use xlink:href="#b" x="-.004"/><use xlink:href="#2"/></svg><svg x="400"><use xlink:href="#a"/><use xlink:href="#b" x="52.996"/><use xlink:href="#2"/></svg><svg x="480"><use xlink:href="#a"/><use xlink:href="#b" x="52.996"/><use xlink:href="#3"/></svg><svg x="560"><use xlink:href="#a"/><use xlink:href="#b" x="-.004" y="2.146"/><use xlink:href="#3"/></svg><svg x="640"><use xlink:href="#a"/><use xlink:href="#b" x="-.004" y="2.146"/><use xlink:href="#3"/></svg><svg x="720"><use xlink:href="#a"/><use xlink:href="#b" x="-.004" y="2.146"/><use xlink:href="#3"/></svg><svg x="800"><use xlink:href="#a"/><use xlink:href="#b" x="-.004" y="2.146"/><use xlink:href="#3"/></svg><svg x="880"><use xlink:href="#a"/><use xlink:href="#b" x="-.004" y="2.146"/><use xlink:href="#3"/></svg><svg x="960"><use xlink:href="#a"/><use xlink:href="#b" x="30.996" y="2.146"/><use xlink:href="#3"/><use xlink:href="#4" y="2.171"/></svg><svg x="1040"><use xlink:href="#a"/><use xlink:href="#b" x="-.004" y="6.488"/><use xlink:href="#3"/><use xlink:href="#5" y="2.171"/><use xlink:href="#6" y="4.342"/></svg><svg x="1120"><use xlink:href="#a"/><use xlink:href="#b" x="-.004" y="6.488"/><use xlink:href="#3"/><use xlink:href="#5" y="2.171"/><use xlink:href="#6" y="4.342"/></svg><svg x="1200"><use xlink:href="#a"/><use xlink:href="#b" x="-.004" y="6.488"/><use xlink:href="#3"/><use xlink:href="#5" y="2.171"/><use xlink:href="#6" y="4.342"/></svg><svg x="1280"><use xlink:href="#a"/><use xlink:href="#b" x="5.996" y="6.488"/><use xlink:href="#3"/><use xlink:href="#5" y="2.171"/><use xlink:href="#6" y="4.342"/><use xlink:href="#1" y="6.513"/></svg><svg x="1360"><use xlink:href="#a"/><use xlink:href="#b" x="52.996" y="6.488"/><use xlink:href="#3"/><use xlink:href="#5" y="2.171"/><use xlink:href="#6" y="4.342"/><use xlink:href="#2" y="6.513"/></svg><svg x="1440"><use xlink:href="#a"/><use xlink:href="#b" x="-.004" y="6.488"/><use xlink:href="#3"/><use xlink:href="#5" y="2.171"/><use xlink:href="#6" y="4.342"/><use xlink:href="#2" y="6.513"/></svg><svg x="1520"><use xlink:href="#a"/><use xlink:href="#b" x="52.996" y="6.488"/><use xlink:href="#3"/><use xlink:href="#5" y="2.171"/><use xlink:href="#6" y="4.342"/><use xlink:href="#2" y="6.513"/></svg><svg x="1600"><use xlink:href="#a"/><use xlink:href="#b" x="52.996" y="6.488"/><use xlink:href="#3"/><use xlink:href="#5" y="2.171"/><use xlink:href="#6" y="4.342"/><use xlink:href="#3" y="6.513"/></svg><svg x="1680"><use xlink:href="#a"/><use xlink:href="#b" x="53.996" y="6.488"/><use xlink:href="#3"/><use xlink:href="#5" y="2.171"/><use xlink:href="#6" y="4.342"/><use xlink:href="#3" y="6.513"/></svg><svg x="1760"><use xlink:href="#a"/><use xlink:href="#b" x="53.996" y="6.488"/><use xlink:href="#3"/><use xlink:href="#5" y="2.171"/><use xlink:href="#6" y="4.342"/><use xlink:href="#3" y="6.513"/></svg><svg x="1840"><use xlink:href="#a"/><use xlink:href="#b" x="53.996" y="6.488"/><use xlink:href="#3"/><use xlink:href="#5" y="2.171"/><use xlink:href="#6" y="4.342"/><use xlink:href="#7" y="6.513"/></svg><svg x="1920"><use xlink:href="#a"/><use xlink:href="#b" x="54.996" y="6.488"/><use xlink:href="#3"/><use xlink:href="#5" y="2.171"/><use xlink:href="#6" y="4.342"/><use xlink:href="#8" y="6.513"/></svg><svg x="2000"><use xlink:href="#a"/><use xlink:href="#b" x="54.996" y="6.488"/><use xlink:href="#3"/><use xlink:href="#5" y="2.171"/><use xlink:href="#6" y="4.342"/><use xlink:href="#9" y="6.513"/></svg><svg x="2080"><use xlink:href="#a"/><use xlink:href="#b" x="55.996" y="6.488"/><use xlink:href="#3"/><use xlink:href="#5" y="2.171"/><use xlink:href="#6" y="4.342"/><use xlink:href="#10" y="6.513"/></svg><svg x="2160"><use xlink:href="#a"/><use xlink:href="#b" x="-.004" y="8.659"/><use xlink:href="#3"/><use xlink:href="#5" y="2.171"/><use xlink:href="#6" y="4.342"/><use xlink:href="#10" y="6.513"/></svg><svg x="2240"><use xlink:href="#a"/><use xlink:href="#b" x="-.004" y="8.659"/><use xlink:href="#3"/><use xlink:href="#5" y="2.171"/><use xlink:href="#6" y="4.342"/><use xlink:href="#10" y="6.513"/></svg><svg x="2320"><use xlink:href="#a"/><use xlink:href="#b" x="-.004" y="8.659"/><use xlink:href="#3"/><use xlink:href="#5" y="2.171"/><use xlink:href="#6" y="4.342"/><use xlink:href="#10" y="6.513"/></svg><svg x="2400"><use xlink:href="#a"/><use xlink:href="#b" x="-.004" y="8.659"/><use xlink:href="#3"/><use xlink:href="#5" y="2.171"/><use xlink:href="#6" y="4.342"/><use xlink:href="#10" y="6.513"/></svg><svg x="2480"><use xlink:href="#a"/><use xlink:href="#b" x="-.004" y="8.659"/><use xlink:href="#3"/><use xlink:href="#5" y="2.171"/><use xlink:href="#6" y="4.342"/><use xlink:href="#10" y="6.513"/></svg><svg x="2560"><use xlink:href="#a"/><use xlink:href="#b" x="30.996" y="8.659"/><use xlink:href="#3"/><use xlink:href="#5" y="2.171"/><use xlink:href="#6" y="4.342"/><use xlink:href="#10" y="6.513"/><use xlink:href="#4" y="8.684"/></svg><svg x="2640"><use xlink:href="#a"/><use xlink:href="#b" x="-.004" y="13.001"/><use xlink:href="#3"/><use xlink:href="#5" y="2.171"/><use xlink:href="#6" y="4.342"/><use xlink:href="#10" y="6.513"/><use xlink:href="#5" y="8.684"/></svg><svg x="2720"><use xlink:href="#a"/><use xlink:href="#b" x="-.004" y="13.001"/><use xlink:href="#3"/><use xlink:href="#5" y="2.171"/><use xlink:href="#6" y="4.342"/><use xlink:href="#10" y="6.513"/><use xlink:href="#5" y="8.684"/></svg><svg x="2800"><use xlink:href="#a"/><use xlink:href="#b" x="-.004" y="13.001"/><use xlink:href="#3"/><use xlink:href="#5" y="2.171"/><use xlink:href="#6" y="4.342"/><use xlink:href="#10" y="6.513"/><use xlink:href="#5" y="8.684"/></svg><svg x="2880"><use xlink:href="#a"/><use xlink:href="#b" x="5.996" y="13.001"/><use xlink:href="#3"/><use xlink:href="#5" y="2.171"/><use xlink:href="#6" y="4.342"/><use xlink:href="#10" y="6.513"/><use xlink:href="#5" y="8.684"/><use xlink:href="#1" y="13.026"/></svg><svg x="2960"><use xlink:href="#a"/><use xlink:href="#b" x="52.996" y="13.001"/><use xlink:href="#3"/><use xlink:href="#5" y="2.171"/><use xlink:href="#6" y="4.342"/><use xlink:href="#10" y="6.513"/><use xlink:href="#5" y="8.684"/><use xlink:href="#2" y="13.026"/></svg><svg x="3040"><use xlink:href="#a"/><use xlink:href="#b" x="-.004" y="13.001"/><use xlink:href="#3"/><use xlink:href="#5" y="2.171"/><use xlink:href="#6" y="4.342"/><use xlink:href="#10" y="6.513"/><use xlink:href="#5" y="8.684"/><use xlink:href="#2" y="13.026"/></svg><svg x="3120"><use xlink:href="#a"/><use xlink:href="#b" x="52.996" y="13.001"/><use xlink:href="#3"/><use xlink:href="#5" y="2.171"/><use xlink:href="#6" y="4.342"/><use xlink:href="#10" y="6.513"/><use xlink:href="#5" y="8.684"/><use xlink:href="#2" y="13.026"/></svg><svg x="3200"><use xlink:href="#a"/><use xlink:href="#b" x="52.996" y="13.001"/><use xlink:href="#3"/><use xlink:href="#5" y="2.171"/><use xlink:href="#6" y="4.342"/><use xlink:href="#10" y="6.513"/><use xlink:href="#5" y="8.684"/><text y="14.696" class="f">●</text><text x="2.004" y="14.696" class="g">⍴</text><text x="4.008" y="14.696" class="h">→</text><text x="6.012" y="14.696" class="i">enquirer</text><text x="15.03" y="14.696" class="i">secret</text><text x="22.044" y="14.696" class="i">-m</text><text x="25.05" y="14.696" class="i">&quot;What</text><text x="31.062" y="14.696" class="i">is</text><text x="34.068" y="14.696" class="i">your</text><text x="39.078" y="14.696" class="i">github</text><text x="46.092" y="14.696" class="i">token?&quot;</text><text x="54.108" y="14.696" class="n">-a</text></svg><svg x="3280"><use xlink:href="#a"/><use xlink:href="#b" x="52.996" y="13.001"/><use xlink:href="#3"/><use xlink:href="#5" y="2.171"/><use xlink:href="#6" y="4.342"/><use xlink:href="#10" y="6.513"/><use xlink:href="#5" y="8.684"/><use xlink:href="#7" y="13.026"/></svg><svg x="3360"><use xlink:href="#a"/><use xlink:href="#b" x="53.996" y="13.001"/><use xlink:href="#3"/><use xlink:href="#5" y="2.171"/><use xlink:href="#6" y="4.342"/><use xlink:href="#10" y="6.513"/><use xlink:href="#5" y="8.684"/><use xlink:href="#7" y="13.026"/></svg><svg x="3440"><use xlink:href="#a"/><use xlink:href="#b" x="53.996" y="13.001"/><use xlink:href="#3"/><use xlink:href="#5" y="2.171"/><use xlink:href="#6" y="4.342"/><use xlink:href="#10" y="6.513"/><use xlink:href="#5" y="8.684"/><use xlink:href="#7" y="13.026"/></svg><svg x="3520"><use xlink:href="#a"/><use xlink:href="#b" x="54.996" y="13.001"/><use xlink:href="#3"/><use xlink:href="#5" y="2.171"/><use xlink:href="#6" y="4.342"/><use xlink:href="#10" y="6.513"/><use xlink:href="#5" y="8.684"/><use xlink:href="#8" y="13.026"/></svg><svg x="3600"><use xlink:href="#a"/><use xlink:href="#b" x="54.996" y="13.001"/><use xlink:href="#3"/><use xlink:href="#5" y="2.171"/><use xlink:href="#6" y="4.342"/><use xlink:href="#10" y="6.513"/><use xlink:href="#5" y="8.684"/><use xlink:href="#9" y="13.026"/></svg><svg x="3680"><use xlink:href="#a"/><use xlink:href="#b" x="55.996" y="13.001"/><use xlink:href="#3"/><use xlink:href="#5" y="2.171"/><use xlink:href="#6" y="4.342"/><use xlink:href="#10" y="6.513"/><use xlink:href="#5" y="8.684"/><text y="14.696" class="f">●</text><text x="2.004" y="14.696" class="g">⍴</text><text x="4.008" y="14.696" class="h">→</text><text x="6.012" y="14.696" class="j">enquirer</text><text x="15.03" y="14.696" class="k">secret</text><text x="22.044" y="14.696" class="k">-m</text><text x="25.05" y="14.696" class="l">&quot;What</text><text x="31.062" y="14.696" class="l">is</text><text x="34.068" y="14.696" class="l">your</text><text x="39.078" y="14.696" class="l">github</text><text x="46.092" y="14.696" class="l">token?&quot;</text><text x="54.108" y="14.696" class="k">-c</text></svg><svg x="3760"><use xlink:href="#a"/><use xlink:href="#b" x="55.996" y="13.001"/><use xlink:href="#3"/><use xlink:href="#5" y="2.171"/><use xlink:href="#6" y="4.342"/><use xlink:href="#10" y="6.513"/><use xlink:href="#5" y="8.684"/><text y="14.696" class="f">●</text><text x="2.004" y="14.696" class="g">⍴</text><text x="4.008" y="14.696" class="h">→</text><text x="6.012" y="14.696" class="j">enquirer</text><text x="15.03" y="14.696" class="k">secret</text><text x="22.044" y="14.696" class="k">-m</text><text x="25.05" y="14.696" class="l">&quot;What</text><text x="31.062" y="14.696" class="l">is</text><text x="34.068" y="14.696" class="l">your</text><text x="39.078" y="14.696" class="l">github</text><text x="46.092" y="14.696" class="l">token?&quot;</text><text x="54.108" y="14.696" class="k">-c</text><text x="57.114" y="14.696" class="n">&quot;Please</text><text x="65.13" y="14.696" class="n">confirm?&quot;</text></svg><svg x="3840"><use xlink:href="#a"/><use xlink:href="#b" x="73.996" y="13.001"/><use xlink:href="#3"/><use xlink:href="#5" y="2.171"/><use xlink:href="#6" y="4.342"/><use xlink:href="#10" y="6.513"/><use xlink:href="#5" y="8.684"/><text y="14.696" class="f">●</text><text x="2.004" y="14.696" class="g">⍴</text><text x="4.008" y="14.696" class="h">→</text><text x="6.012" y="14.696" class="j">enquirer</text><text x="15.03" y="14.696" class="k">secret</text><text x="22.044" y="14.696" class="k">-m</text><text x="25.05" y="14.696" class="l">&quot;What</text><text x="31.062" y="14.696" class="l">is</text><text x="34.068" y="14.696" class="l">your</text><text x="39.078" y="14.696" class="l">github</text><text x="46.092" y="14.696" class="l">token?&quot;</text><text x="54.108" y="14.696" class="k">-c</text><text x="57.114" y="14.696" class="k">&quot;Please</text><text x="65.13" y="14.696" class="k">confirm?&quot;</text></svg><svg x="3920"><use xlink:href="#a"/><use xlink:href="#b" x="73.996" y="13.001"/><use xlink:href="#3"/><use xlink:href="#5" y="2.171"/><use xlink:href="#6" y="4.342"/><use xlink:href="#10" y="6.513"/><use xlink:href="#5" y="8.684"/><use xlink:href="#11" y="13.026"/></svg><svg x="4000"><use xlink:href="#a"/><use xlink:href="#b" x="74.996" y="13.001"/><use xlink:href="#3"/><use xlink:href="#5" y="2.171"/><use xlink:href="#6" y="4.342"/><use xlink:href="#10" y="6.513"/><use xlink:href="#5" y="8.684"/><text y="14.696" class="f">●</text><text x="2.004" y="14.696" class="g">⍴</text><text x="4.008" y="14.696" class="h">→</text><text x="6.012" y="14.696" class="j">enquirer</text><text x="15.03" y="14.696" class="k">secret</text><text x="22.044" y="14.696" class="k">-m</text><text x="25.05" y="14.696" class="l">&quot;What</text><text x="31.062" y="14.696" class="l">is</text><text x="34.068" y="14.696" class="l">your</text><text x="39.078" y="14.696" class="l">github</text><text x="46.092" y="14.696" class="l">token?&quot;</text><text x="54.108" y="14.696" class="k">-c</text><text x="57.114" y="14.696" class="l">&quot;Please</text><text x="65.13" y="14.696" class="l">confirm?&quot;\</text></svg><svg x="4080"><use xlink:href="#a"/><use xlink:href="#b" x="74.996" y="13.001"/><use xlink:href="#3"/><use xlink:href="#5" y="2.171"/><use xlink:href="#6" y="4.342"/><use xlink:href="#10" y="6.513"/><use xlink:href="#5" y="8.684"/><text y="14.696" class="f">●</text><text x="2.004" y="14.696" class="g">⍴</text><text x="4.008" y="14.696" class="h">→</text><text x="6.012" y="14.696" class="j">enquirer</text><text x="15.03" y="14.696" class="k">secret</text><text x="22.044" y="14.696" class="k">-m</text><text x="25.05" y="14.696" class="l">&quot;What</text><text x="31.062" y="14.696" class="l">is</text><text x="34.068" y="14.696" class="l">your</text><text x="39.078" y="14.696" class="l">github</text><text x="46.092" y="14.696" class="l">token?&quot;</text><text x="54.108" y="14.696" class="k">-c</text><text x="57.114" y="14.696" class="o">&quot;Please</text><text x="65.13" y="14.696" class="o">confirm?&quot;\</text></svg><svg x="4160"><use xlink:href="#a"/><use xlink:href="#b" x="73.996" y="13.001"/><use xlink:href="#3"/><use xlink:href="#5" y="2.171"/><use xlink:href="#6" y="4.342"/><use xlink:href="#10" y="6.513"/><use xlink:href="#5" y="8.684"/><text y="14.696" class="f">●</text><text x="2.004" y="14.696" class="g">⍴</text><text x="4.008" y="14.696" class="h">→</text><text x="6.012" y="14.696" class="j">enquirer</text><text x="15.03" y="14.696" class="k">secret</text><text x="22.044" y="14.696" class="k">-m</text><text x="25.05" y="14.696" class="l">&quot;What</text><text x="31.062" y="14.696" class="l">is</text><text x="34.068" y="14.696" class="l">your</text><text x="39.078" y="14.696" class="l">github</text><text x="46.092" y="14.696" class="l">token?&quot;</text><text x="54.108" y="14.696" class="k">-c</text><text x="57.114" y="14.696" class="o">&quot;Please</text><text x="65.13" y="14.696" class="o">confirm?&quot;</text></svg><svg x="4240"><use xlink:href="#a"/><use xlink:href="#b" x="73.996" y="13.001"/><use xlink:href="#3"/><use xlink:href="#5" y="2.171"/><use xlink:href="#6" y="4.342"/><use xlink:href="#10" y="6.513"/><use xlink:href="#5" y="8.684"/><use xlink:href="#11" y="13.026"/></svg><svg x="4320"><use xlink:href="#a"/><use xlink:href="#b" x="74.996" y="13.001"/><use xlink:href="#3"/><use xlink:href="#5" y="2.171"/><use xlink:href="#6" y="4.342"/><use xlink:href="#10" y="6.513"/><use xlink:href="#5" y="8.684"/><use xlink:href="#11" y="13.026"/></svg><svg x="4400"><use xlink:href="#a"/><use xlink:href="#b" x="74.996" y="13.001"/><use xlink:href="#3"/><use xlink:href="#5" y="2.171"/><use xlink:href="#6" y="4.342"/><use xlink:href="#10" y="6.513"/><use xlink:href="#5" y="8.684"/><use xlink:href="#11" y="13.026"/></svg><svg x="4480"><use xlink:href="#a"/><use xlink:href="#b" x="74.996" y="13.001"/><use xlink:href="#3"/><use xlink:href="#5" y="2.171"/><use xlink:href="#6" y="4.342"/><use xlink:href="#10" y="6.513"/><use xlink:href="#5" y="8.684"/><text y="14.696" class="f">●</text><text x="2.004" y="14.696" class="g">⍴</text><text x="4.008" y="14.696" class="h">→</text><text x="6.012" y="14.696" class="j">enquirer</text><text x="15.03" y="14.696" class="k">secret</text><text x="22.044" y="14.696" class="k">-m</text><text x="25.05" y="14.696" class="l">&quot;What</text><text x="31.062" y="14.696" class="l">is</text><text x="34.068" y="14.696" class="l">your</text><text x="39.078" y="14.696" class="l">github</text><text x="46.092" y="14.696" class="l">token?&quot;</text><text x="54.108" y="14.696" class="k">-c</text><text x="57.114" y="14.696" class="l">&quot;Please</text><text x="65.13" y="14.696" class="l">confirm?&quot;</text><text x="75.15" y="14.696" class="n">-e</text><text x="78.156" y="14.696" class="n">…</text></svg><svg x="4560"><use xlink:href="#a"/><use xlink:href="#b" x="75.996" y="13.001"/><use xlink:href="#3"/><use xlink:href="#5" y="2.171"/><use xlink:href="#6" y="4.342"/><use xlink:href="#10" y="6.513"/><use xlink:href="#5" y="8.684"/><use xlink:href="#12" y="13.026"/></svg><svg x="4640"><use xlink:href="#a"/><use xlink:href="#b" x="75.996" y="13.001"/><use xlink:href="#3"/><use xlink:href="#5" y="2.171"/><use xlink:href="#6" y="4.342"/><use xlink:href="#10" y="6.513"/><use xlink:href="#5" y="8.684"/><use xlink:href="#13" y="13.026"/></svg><svg x="4720"><use xlink:href="#a"/><use xlink:href="#b" x="5.996" y="15.172"/><use xlink:href="#3"/><use xlink:href="#5" y="2.171"/><use xlink:href="#6" y="4.342"/><use xlink:href="#10" y="6.513"/><use xlink:href="#5" y="8.684"/><use xlink:href="#13" y="13.026"/></svg><svg x="4800"><use xlink:href="#a"/><use xlink:href="#b" x="5.996" y="15.172"/><use xlink:href="#3"/><use xlink:href="#5" y="2.171"/><use xlink:href="#6" y="4.342"/><use xlink:href="#10" y="6.513"/><use xlink:href="#5" y="8.684"/><use xlink:href="#12" y="13.026"/></svg><svg x="4880"><use xlink:href="#a"/><use xlink:href="#b" x="6.996" y="15.172"/><use xlink:href="#3"/><use xlink:href="#5" y="2.171"/><use xlink:href="#6" y="4.342"/><use xlink:href="#10" y="6.513"/><use xlink:href="#5" y="8.684"/><use xlink:href="#12" y="13.026"/><text x="6.012" y="16.867" class="i">-</text></svg><svg x="4960"><use xlink:href="#a"/><use xlink:href="#b" x="6.996" y="15.172"/><use xlink:href="#3"/><use xlink:href="#5" y="2.171"/><use xlink:href="#6" y="4.342"/><use xlink:href="#10" y="6.513"/><use xlink:href="#5" y="8.684"/><use xlink:href="#12" y="13.026"/><use xlink:href="#14" y="15.197"/></svg><svg x="5040"><use xlink:href="#a"/><use xlink:href="#b" x="7.996" y="15.172"/><use xlink:href="#3"/><use xlink:href="#5" y="2.171"/><use xlink:href="#6" y="4.342"/><use xlink:href="#10" y="6.513"/><use xlink:href="#5" y="8.684"/><use xlink:href="#12" y="13.026"/><use xlink:href="#14" y="15.197"/></svg><svg x="5120"><use xlink:href="#a"/><use xlink:href="#b" x="7.996" y="15.172"/><use xlink:href="#3"/><use xlink:href="#5" y="2.171"/><use xlink:href="#6" y="4.342"/><use xlink:href="#10" y="6.513"/><use xlink:href="#5" y="8.684"/><use xlink:href="#12" y="13.026"/><use xlink:href="#14" y="15.197"/></svg><svg x="5200"><use xlink:href="#a"/><use xlink:href="#b" x="6.996" y="15.172"/><use xlink:href="#3"/><use xlink:href="#5" y="2.171"/><use xlink:href="#6" y="4.342"/><use xlink:href="#10" y="6.513"/><use xlink:href="#5" y="8.684"/><use xlink:href="#12" y="13.026"/><use xlink:href="#14" y="15.197"/></svg><svg x="5280"><use xlink:href="#a"/><use xlink:href="#b" x="7.996" y="15.172"/><use xlink:href="#3"/><use xlink:href="#5" y="2.171"/><use xlink:href="#6" y="4.342"/><use xlink:href="#10" y="6.513"/><use xlink:href="#5" y="8.684"/><use xlink:href="#12" y="13.026"/><use xlink:href="#15" y="15.197"/></svg><svg x="5360"><use xlink:href="#a"/><use xlink:href="#b" x="8.996" y="15.172"/><use xlink:href="#3"/><use xlink:href="#5" y="2.171"/><use xlink:href="#6" y="4.342"/><use xlink:href="#10" y="6.513"/><use xlink:href="#5" y="8.684"/><use xlink:href="#12" y="13.026"/><use xlink:href="#15" y="15.197"/></svg><svg x="5440"><use xlink:href="#a"/><use xlink:href="#b" x="8.996" y="15.172"/><use xlink:href="#3"/><use xlink:href="#5" y="2.171"/><use xlink:href="#6" y="4.342"/><use xlink:href="#10" y="6.513"/><use xlink:href="#5" y="8.684"/><use xlink:href="#12" y="13.026"/><use xlink:href="#15" y="15.197"/></svg><svg x="5520"><use xlink:href="#a"/><use xlink:href="#b" x="9.996" y="15.172"/><use xlink:href="#3"/><use xlink:href="#5" y="2.171"/><use xlink:href="#6" y="4.342"/><use xlink:href="#10" y="6.513"/><use xlink:href="#5" y="8.684"/><use xlink:href="#12" y="13.026"/><text x="6.012" y="16.867" class="k">-e</text><text x="9.018" y="16.867" class="i">&quot;&quot;</text></svg><svg x="5600"><use xlink:href="#a"/><use xlink:href="#b" x="9.996" y="15.172"/><use xlink:href="#3"/><use xlink:href="#5" y="2.171"/><use xlink:href="#6" y="4.342"/><use xlink:href="#10" y="6.513"/><use xlink:href="#5" y="8.684"/><use xlink:href="#12" y="13.026"/><text x="6.012" y="16.867" class="k">-e</text><text x="9.018" y="16.867" class="l">&quot;&quot;</text></svg><svg x="5680"><use xlink:href="#a"/><use xlink:href="#b" x="10.996" y="15.172"/><use xlink:href="#3"/><use xlink:href="#5" y="2.171"/><use xlink:href="#6" y="4.342"/><use xlink:href="#10" y="6.513"/><use xlink:href="#5" y="8.684"/><use xlink:href="#12" y="13.026"/><text x="6.012" y="16.867" class="k">-e</text><text x="9.018" y="16.867" class="l">&quot;T&quot;</text></svg><svg x="5760"><use xlink:href="#a"/><use xlink:href="#b" x="10.996" y="15.172"/><use xlink:href="#3"/><use xlink:href="#5" y="2.171"/><use xlink:href="#6" y="4.342"/><use xlink:href="#10" y="6.513"/><use xlink:href="#5" y="8.684"/><use xlink:href="#12" y="13.026"/><text x="6.012" y="16.867" class="k">-e</text><text x="9.018" y="16.867" class="u">&quot;T&quot;</text></svg><svg x="5840"><use xlink:href="#a"/><use xlink:href="#b" x="11.996" y="15.172"/><use xlink:href="#3"/><use xlink:href="#5" y="2.171"/><use xlink:href="#6" y="4.342"/><use xlink:href="#10" y="6.513"/><use xlink:href="#5" y="8.684"/><use xlink:href="#12" y="13.026"/><text x="6.012" y="16.867" class="k">-e</text><text x="9.018" y="16.867" class="u">&quot;To&quot;</text></svg><svg x="5920"><use xlink:href="#a"/><use xlink:href="#b" x="11.996" y="15.172"/><use xlink:href="#3"/><use xlink:href="#5" y="2.171"/><use xlink:href="#6" y="4.342"/><use xlink:href="#10" y="6.513"/><use xlink:href="#5" y="8.684"/><use xlink:href="#12" y="13.026"/><text x="6.012" y="16.867" class="k">-e</text><text x="9.018" y="16.867" class="l">&quot;To&quot;</text></svg><svg x="6000"><use xlink:href="#a"/><use xlink:href="#b" x="12.996" y="15.172"/><use xlink:href="#3"/><use xlink:href="#5" y="2.171"/><use xlink:href="#6" y="4.342"/><use xlink:href="#10" y="6.513"/><use xlink:href="#5" y="8.684"/><use xlink:href="#12" y="13.026"/><text x="6.012" y="16.867" class="k">-e</text><text x="9.018" y="16.867" class="l">&quot;Tok&quot;</text></svg><svg x="6080"><use xlink:href="#a"/><use xlink:href="#b" x="13.996" y="15.172"/><use xlink:href="#3"/><use xlink:href="#5" y="2.171"/><use xlink:href="#6" y="4.342"/><use xlink:href="#10" y="6.513"/><use xlink:href="#5" y="8.684"/><use xlink:href="#12" y="13.026"/><text x="6.012" y="16.867" class="k">-e</text><text x="9.018" y="16.867" class="l">&quot;Toke&quot;</text></svg><svg x="6160"><use xlink:href="#a"/><use xlink:href="#b" x="14.996" y="15.172"/><use xlink:href="#3"/><use xlink:href="#5" y="2.171"/><use xlink:href="#6" y="4.342"/><use xlink:href="#10" y="6.513"/><use xlink:href="#5" y="8.684"/><use xlink:href="#12" y="13.026"/><text x="6.012" y="16.867" class="k">-e</text><text x="9.018" y="16.867" class="l">&quot;Token&quot;</text></svg><svg x="6240"><use xlink:href="#a"/><use xlink:href="#b" x="15.996" y="15.172"/><use xlink:href="#3"/><use xlink:href="#5" y="2.171"/><use xlink:href="#6" y="4.342"/><use xlink:href="#10" y="6.513"/><use xlink:href="#5" y="8.684"/><use xlink:href="#12" y="13.026"/><text x="6.012" y="16.867" class="k">-e</text><text x="9.018" y="16.867" class="l">&quot;Tokens&quot;</text></svg><svg x="6320"><use xlink:href="#a"/><use xlink:href="#b" x="16.996" y="15.172"/><use xlink:href="#3"/><use xlink:href="#5" y="2.171"/><use xlink:href="#6" y="4.342"/><use xlink:href="#10" y="6.513"/><use xlink:href="#5" y="8.684"/><use xlink:href="#12" y="13.026"/><text x="6.012" y="16.867" class="k">-e</text><text x="9.018" y="16.867" class="l">&quot;Tokens</text><text x="17.034" y="16.867" class="l">&quot;</text></svg><svg x="6400"><use xlink:href="#a"/><use xlink:href="#b" x="17.996" y="15.172"/><use xlink:href="#3"/><use xlink:href="#5" y="2.171"/><use xlink:href="#6" y="4.342"/><use xlink:href="#10" y="6.513"/><use xlink:href="#5" y="8.684"/><use xlink:href="#12" y="13.026"/><text x="6.012" y="16.867" class="k">-e</text><text x="9.018" y="16.867" class="l">&quot;Tokens</text><text x="17.034" y="16.867" class="l">d&quot;</text></svg><svg x="6480"><use xlink:href="#a"/><use xlink:href="#b" x="18.996" y="15.172"/><use xlink:href="#3"/><use xlink:href="#5" y="2.171"/><use xlink:href="#6" y="4.342"/><use xlink:href="#10" y="6.513"/><use xlink:href="#5" y="8.684"/><use xlink:href="#12" y="13.026"/><text x="6.012" y="16.867" class="k">-e</text><text x="9.018" y="16.867" class="l">&quot;Tokens</text><text x="17.034" y="16.867" class="l">do&quot;</text></svg><svg x="6560"><use xlink:href="#a"/><use xlink:href="#b" x="19.996" y="15.172"/><use xlink:href="#3"/><use xlink:href="#5" y="2.171"/><use xlink:href="#6" y="4.342"/><use xlink:href="#10" y="6.513"/><use xlink:href="#5" y="8.684"/><use xlink:href="#12" y="13.026"/><text x="6.012" y="16.867" class="k">-e</text><text x="9.018" y="16.867" class="l">&quot;Tokens</text><text x="17.034" y="16.867" class="l">do</text><text x="20.04" y="16.867" class="l">&quot;</text></svg><svg x="6640"><use xlink:href="#a"/><use xlink:href="#b" x="20.996" y="15.172"/><use xlink:href="#3"/><use xlink:href="#5" y="2.171"/><use xlink:href="#6" y="4.342"/><use xlink:href="#10" y="6.513"/><use xlink:href="#5" y="8.684"/><use xlink:href="#12" y="13.026"/><text x="6.012" y="16.867" class="k">-e</text><text x="9.018" y="16.867" class="l">&quot;Tokens</text><text x="17.034" y="16.867" class="l">do</text><text x="20.04" y="16.867" class="l">n&quot;</text></svg><svg x="6720"><use xlink:href="#a"/><use xlink:href="#b" x="21.996" y="15.172"/><use xlink:href="#3"/><use xlink:href="#5" y="2.171"/><use xlink:href="#6" y="4.342"/><use xlink:href="#10" y="6.513"/><use xlink:href="#5" y="8.684"/><use xlink:href="#12" y="13.026"/><text x="6.012" y="16.867" class="k">-e</text><text x="9.018" y="16.867" class="l">&quot;Tokens</text><text x="17.034" y="16.867" class="l">do</text><text x="20.04" y="16.867" class="l">no&quot;</text></svg><svg x="6800"><use xlink:href="#a"/><use xlink:href="#b" x="22.996" y="15.172"/><use xlink:href="#3"/><use xlink:href="#5" y="2.171"/><use xlink:href="#6" y="4.342"/><use xlink:href="#10" y="6.513"/><use xlink:href="#5" y="8.684"/><use xlink:href="#12" y="13.026"/><text x="6.012" y="16.867" class="k">-e</text><text x="9.018" y="16.867" class="l">&quot;Tokens</text><text x="17.034" y="16.867" class="l">do</text><text x="20.04" y="16.867" class="l">not&quot;</text></svg><svg x="6880"><use xlink:href="#a"/><use xlink:href="#b" x="23.996" y="15.172"/><use xlink:href="#3"/><use xlink:href="#5" y="2.171"/><use xlink:href="#6" y="4.342"/><use xlink:href="#10" y="6.513"/><use xlink:href="#5" y="8.684"/><use xlink:href="#12" y="13.026"/><text x="6.012" y="16.867" class="k">-e</text><text x="9.018" y="16.867" class="l">&quot;Tokens</text><text x="17.034" y="16.867" class="l">do</text><text x="20.04" y="16.867" class="l">not</text><text x="24.048" y="16.867" class="l">&quot;</text></svg><svg x="6960"><use xlink:href="#a"/><use xlink:href="#b" x="24.996" y="15.172"/><use xlink:href="#3"/><use xlink:href="#5" y="2.171"/><use xlink:href="#6" y="4.342"/><use xlink:href="#10" y="6.513"/><use xlink:href="#5" y="8.684"/><use xlink:href="#12" y="13.026"/><text x="6.012" y="16.867" class="k">-e</text><text x="9.018" y="16.867" class="l">&quot;Tokens</text><text x="17.034" y="16.867" class="l">do</text><text x="20.04" y="16.867" class="l">not</text><text x="24.048" y="16.867" class="l">m&quot;</text></svg><svg x="7040"><use xlink:href="#a"/><use xlink:href="#b" x="25.996" y="15.172"/><use xlink:href="#3"/><use xlink:href="#5" y="2.171"/><use xlink:href="#6" y="4.342"/><use xlink:href="#10" y="6.513"/><use xlink:href="#5" y="8.684"/><use xlink:href="#12" y="13.026"/><text x="6.012" y="16.867" class="k">-e</text><text x="9.018" y="16.867" class="l">&quot;Tokens</text><text x="17.034" y="16.867" class="l">do</text><text x="20.04" y="16.867" class="l">not</text><text x="24.048" y="16.867" class="l">ma&quot;</text></svg><svg x="7120"><use xlink:href="#a"/><use xlink:href="#b" x="26.996" y="15.172"/><use xlink:href="#3"/><use xlink:href="#5" y="2.171"/><use xlink:href="#6" y="4.342"/><use xlink:href="#10" y="6.513"/><use xlink:href="#5" y="8.684"/><use xlink:href="#12" y="13.026"/><text x="6.012" y="16.867" class="k">-e</text><text x="9.018" y="16.867" class="l">&quot;Tokens</text><text x="17.034" y="16.867" class="l">do</text><text x="20.04" y="16.867" class="l">not</text><text x="24.048" y="16.867" class="l">mat&quot;</text></svg><svg x="7200"><use xlink:href="#a"/><use xlink:href="#b" x="27.996" y="15.172"/><use xlink:href="#3"/><use xlink:href="#5" y="2.171"/><use xlink:href="#6" y="4.342"/><use xlink:href="#10" y="6.513"/><use xlink:href="#5" y="8.684"/><use xlink:href="#12" y="13.026"/><text x="6.012" y="16.867" class="k">-e</text><text x="9.018" y="16.867" class="l">&quot;Tokens</text><text x="17.034" y="16.867" class="l">do</text><text x="20.04" y="16.867" class="l">not</text><text x="24.048" y="16.867" class="l">matc&quot;</text></svg><svg x="7280"><use xlink:href="#a"/><use xlink:href="#b" x="28.996" y="15.172"/><use xlink:href="#3"/><use xlink:href="#5" y="2.171"/><use xlink:href="#6" y="4.342"/><use xlink:href="#10" y="6.513"/><use xlink:href="#5" y="8.684"/><use xlink:href="#12" y="13.026"/><use xlink:href="#16" y="15.197"/></svg><svg x="7360"><use xlink:href="#a"/><use xlink:href="#b" x="29.996" y="15.172"/><use xlink:href="#3"/><use xlink:href="#5" y="2.171"/><use xlink:href="#6" y="4.342"/><use xlink:href="#10" y="6.513"/><use xlink:href="#5" y="8.684"/><use xlink:href="#12" y="13.026"/><use xlink:href="#16" y="15.197"/></svg><svg x="7440"><use xlink:href="#a"/><use xlink:href="#b" x="-.004" y="17.343"/><use xlink:href="#3"/><use xlink:href="#5" y="2.171"/><use xlink:href="#6" y="4.342"/><use xlink:href="#10" y="6.513"/><use xlink:href="#5" y="8.684"/><use xlink:href="#12" y="13.026"/><use xlink:href="#16" y="15.197"/></svg><svg x="7520"><use xlink:href="#a"/><use xlink:href="#b" x="-.004" y="17.343"/><use xlink:href="#3"/><use xlink:href="#5" y="2.171"/><use xlink:href="#6" y="4.342"/><use xlink:href="#10" y="6.513"/><use xlink:href="#5" y="8.684"/><use xlink:href="#12" y="13.026"/><use xlink:href="#16" y="15.197"/></svg><svg x="7600"><use xlink:href="#a"/><use xlink:href="#b" x="-.004" y="17.343"/><use xlink:href="#3"/><use xlink:href="#5" y="2.171"/><use xlink:href="#6" y="4.342"/><use xlink:href="#10" y="6.513"/><use xlink:href="#5" y="8.684"/><use xlink:href="#12" y="13.026"/><use xlink:href="#16" y="15.197"/></svg><svg x="7680"><use xlink:href="#a"/><use xlink:href="#b" x="-.004" y="17.343"/><use xlink:href="#3"/><use xlink:href="#5" y="2.171"/><use xlink:href="#6" y="4.342"/><use xlink:href="#10" y="6.513"/><use xlink:href="#5" y="8.684"/><use xlink:href="#12" y="13.026"/><use xlink:href="#16" y="15.197"/></svg><svg x="7760"><use xlink:href="#a"/><use xlink:href="#b" x="30.996" y="17.343"/><use xlink:href="#3"/><use xlink:href="#5" y="2.171"/><use xlink:href="#6" y="4.342"/><use xlink:href="#10" y="6.513"/><use xlink:href="#5" y="8.684"/><use xlink:href="#12" y="13.026"/><use xlink:href="#16" y="15.197"/><use xlink:href="#4" y="17.368"/></svg><svg x="7840"><use xlink:href="#a"/><use xlink:href="#b" x="19.996" y="19.514"/><use xlink:href="#3"/><use xlink:href="#5" y="2.171"/><use xlink:href="#6" y="4.342"/><use xlink:href="#10" y="6.513"/><use xlink:href="#5" y="8.684"/><use xlink:href="#12" y="13.026"/><use xlink:href="#16" y="15.197"/><use xlink:href="#4" y="17.368"/><use xlink:href="#17" y="19.539"/></svg><svg x="7920"><use xlink:href="#a"/><use xlink:href="#b" x="30.996" y="23.856"/><use xlink:href="#3"/><use xlink:href="#5" y="2.171"/><use xlink:href="#6" y="4.342"/><use xlink:href="#10" y="6.513"/><use xlink:href="#5" y="8.684"/><use xlink:href="#12" y="13.026"/><use xlink:href="#16" y="15.197"/><use xlink:href="#4" y="17.368"/><use xlink:href="#17" y="19.539"/><use xlink:href="#18" y="21.71"/><use xlink:href="#4" y="23.881"/></svg><svg x="8000"><use xlink:href="#a"/><use xlink:href="#b" x="19.996" y="26.027"/><use xlink:href="#3"/><use xlink:href="#5" y="2.171"/><use xlink:href="#6" y="4.342"/><use xlink:href="#10" y="6.513"/><use xlink:href="#5" y="8.684"/><use xlink:href="#12" y="13.026"/><use xlink:href="#16" y="15.197"/><use xlink:href="#4" y="17.368"/><use xlink:href="#17" y="19.539"/><use xlink:href="#18" y="21.71"/><use xlink:href="#4" y="23.881"/><use xlink:href="#17" y="26.052"/></svg><svg x="8080"><use xlink:href="#a"/><use xlink:href="#b" x="-.004" y="21.685"/><use xlink:href="#3"/><use xlink:href="#5" y="2.171"/><use xlink:href="#6" y="4.342"/><use xlink:href="#10" y="6.513"/><use xlink:href="#5" y="8.684"/><use xlink:href="#12" y="13.026"/><use xlink:href="#16" y="15.197"/><use xlink:href="#5" y="17.368"/><use xlink:href="#6" y="19.539"/></svg><svg x="8160"><use xlink:href="#a"/><use xlink:href="#b" x="-.004" y="21.685"/><use xlink:href="#3"/><use xlink:href="#5" y="2.171"/><use xlink:href="#6" y="4.342"/><use xlink:href="#10" y="6.513"/><use xlink:href="#5" y="8.684"/><use xlink:href="#12" y="13.026"/><use xlink:href="#16" y="15.197"/><use xlink:href="#5" y="17.368"/><use xlink:href="#6" y="19.539"/></svg><svg x="8240"><use xlink:href="#a"/><use xlink:href="#b" x="-.004" y="21.685"/><use xlink:href="#3"/><use xlink:href="#5" y="2.171"/><use xlink:href="#6" y="4.342"/><use xlink:href="#10" y="6.513"/><use xlink:href="#5" y="8.684"/><use xlink:href="#12" y="13.026"/><use xlink:href="#16" y="15.197"/><use xlink:href="#5" y="17.368"/><use xlink:href="#6" y="19.539"/></svg><svg x="8320"><use xlink:href="#a"/><use xlink:href="#b" x="5.996" y="21.685"/><use xlink:href="#3"/><use xlink:href="#5" y="2.171"/><use xlink:href="#6" y="4.342"/><use xlink:href="#10" y="6.513"/><use xlink:href="#5" y="8.684"/><use xlink:href="#12" y="13.026"/><use xlink:href="#16" y="15.197"/><use xlink:href="#5" y="17.368"/><use xlink:href="#6" y="19.539"/><use xlink:href="#1" y="21.71"/></svg><svg x="8400"><use xlink:href="#a"/><use xlink:href="#b" x="-.004" y="23.856"/><use xlink:href="#3"/><use xlink:href="#5" y="2.171"/><use xlink:href="#6" y="4.342"/><use xlink:href="#10" y="6.513"/><use xlink:href="#5" y="8.684"/><use xlink:href="#12" y="13.026"/><use xlink:href="#16" y="15.197"/><use xlink:href="#5" y="17.368"/><use xlink:href="#6" y="19.539"/><use xlink:href="#1" y="21.71"/></svg><svg x="8480"><use xlink:href="#a"/><use xlink:href="#b" x="-.004" y="23.856"/><use xlink:href="#3"/><use xlink:href="#5" y="2.171"/><use xlink:href="#6" y="4.342"/><use xlink:href="#10" y="6.513"/><use xlink:href="#5" y="8.684"/><use xlink:href="#12" y="13.026"/><use xlink:href="#16" y="15.197"/><use xlink:href="#5" y="17.368"/><use xlink:href="#6" y="19.539"/><use xlink:href="#1" y="21.71"/></svg></svg></g></g></svg></svg>
