<svg xmlns="http://www.w3.org/2000/svg" xmlns:xlink="http://www.w3.org/1999/xlink" width="900" height="342.23"><rect width="900" height="342.23" rx="5" ry="5" class="a"/><svg y="0%" x="0%"><circle cx="20" cy="20" r="6" fill="#ff5f58"/><circle cx="40" cy="20" r="6" fill="#ffbd2e"/><circle cx="60" cy="20" r="6" fill="#18c132"/></svg><svg height="282.23" viewBox="0 0 86 28.223" width="860" x="15" xmlns="http://www.w3.org/2000/svg" xmlns:xlink="http://www.w3.org/1999/xlink" y="50"><style>@keyframes r{0%{transform:translateX(-86px)}.2%{transform:translateX(-344px)}8.2%{transform:translateX(-430px)}8.5%{transform:translateX(-688px)}13.8%{transform:translateX(-1118px)}13.9%{transform:translateX(-1204px)}26.4%{transform:translateX(-1376px)}28.5%{transform:translateX(-1462px)}30.8%{transform:translateX(-1548px)}36.4%{transform:translateX(-1806px)}36.6%{transform:translateX(-1978px)}46.5%{transform:translateX(-2064px)}46.8%{transform:translateX(-2322px)}49.8%{transform:translateX(-2494px)}52.6%{transform:translateX(-2666px)}55.2%{transform:translateX(-2752px)}57.3%{transform:translateX(-2924px)}59.1%{transform:translateX(-3096px)}68.1%{transform:translateX(-3440px)}68.2%{transform:translateX(-3526px)}77.1%{transform:translateX(-3612px)}84.8%{transform:translateX(-3784px)}85%{transform:translateX(-3956px)}to{transform:translateX(-4128px)}}.a{fill:#161827}.f{fill:#8ce10b}.g{fill:#00d8eb}.h{fill:#5f5f5f}.i{fill:#dfdfdf}.j{fill:#005fd7}.k{fill:#00afff}.l{fill:#878700}.m,.n{fill:#fff;font-weight:700}.n{fill:#00d8eb}.o{fill:#585858}</style><g font-size="1.67" font-family="Monaco,Consolas,Menlo,'Bitstream Vera Sans Mono','Powerline Symbols',monospace"><defs><symbol id="1"><text y="1.67" class="f">●</text><text x="2.004" y="1.67" class="g">⍴</text><text x="4.008" y="1.67" class="h">→</text></symbol><symbol id="2"><text y="1.67" class="f">●</text><text x="2.004" y="1.67" class="g">⍴</text><text x="4.008" y="1.67" class="h">→</text><text x="6.012" y="1.67" class="i">enquirer</text><text x="15.03" y="1.67" class="i">select</text><text x="22.044" y="1.67" class="i">-m</text><text x="25.05" y="1.67" class="i">&quot;Which</text><text x="32.064" y="1.67" class="i">language</text><text x="41.082" y="1.67" class="i">do</text><text x="44.088" y="1.67" class="i">you</text><text x="48.096" y="1.67" class="i">prefer?&quot;</text><text x="57.114" y="1.67" class="i">node</text><text x="62.124" y="1.67" class="i">c</text><text x="64.128" y="1.67" class="i">rust</text><text x="69.138" y="1.67" class="i">python</text><text x="76.152" y="1.67" class="i">ruby</text></symbol><symbol id="3"><text y="1.67" class="f">●</text><text x="2.004" y="1.67" class="g">⍴</text><text x="4.008" y="1.67" class="h">→</text><text x="6.012" y="1.67" class="j">enquirer</text><text x="15.03" y="1.67" class="k">select</text><text x="22.044" y="1.67" class="k">-m</text><text x="25.05" y="1.67" class="l">&quot;Which</text><text x="32.064" y="1.67" class="l">language</text><text x="41.082" y="1.67" class="l">do</text><text x="44.088" y="1.67" class="l">you</text><text x="48.096" y="1.67" class="l">prefer?&quot;</text><text x="57.114" y="1.67" class="k">node</text><text x="62.124" y="1.67" class="k">c</text><text x="64.128" y="1.67" class="k">rust</text><text x="69.138" y="1.67" class="k">python</text><text x="76.152" y="1.67" class="k">ruby</text></symbol><symbol id="4"><text y="1.67" class="g">?</text><text x="2.004" y="1.67" class="m">Which</text><text x="8.016" y="1.67" class="m">language</text><text x="17.034" y="1.67" class="m">do</text><text x="20.04" y="1.67" class="m">you</text><text x="24.048" y="1.67" class="m">prefer?</text><text x="32.064" y="1.67" class="h">›</text></symbol><symbol id="5"><text x="2.004" y="1.67" class="i">node</text></symbol><symbol id="6"><text x="2.004" y="1.67" class="i">c</text></symbol><symbol id="7"><text x="2.004" y="1.67" class="i">rust</text></symbol><symbol id="8"><text x="2.004" y="1.67" class="i">python</text></symbol><symbol id="9"><text x="2.004" y="1.67" class="i">ruby</text></symbol><symbol id="10"><text y="1.67" class="f">❯</text><text x="2.004" y="1.67" class="n">node</text></symbol><symbol id="11"><text y="1.67" class="f">❯</text><text x="2.004" y="1.67" class="n">c</text></symbol><symbol id="12"><text y="1.67" class="f">❯</text><text x="2.004" y="1.67" class="n">rust</text></symbol><symbol id="13"><text y="1.67" class="f">✔</text><text x="2.004" y="1.67" class="m">Which</text><text x="8.016" y="1.67" class="m">language</text><text x="17.034" y="1.67" class="m">do</text><text x="20.04" y="1.67" class="m">you</text><text x="24.048" y="1.67" class="m">prefer?</text><text x="32.064" y="1.67" class="h">·</text><text x="34.068" y="1.67" class="f">rust</text></symbol><symbol id="14"><text y="1.67" class="i">rust</text></symbol><symbol id="15"><text y="1.67" class="f">●</text><text x="2.004" y="1.67" class="g">⍴</text><text x="4.008" y="1.67" class="h">→</text><text x="6.012" y="1.67" class="j">enquirer</text><text x="15.03" y="1.67" class="k">select</text><text x="22.044" y="1.67" class="k">-m</text><text x="25.05" y="1.67" class="l">&quot;Which</text><text x="32.064" y="1.67" class="l">language</text><text x="41.082" y="1.67" class="l">do</text><text x="44.088" y="1.67" class="l">you</text><text x="48.096" y="1.67" class="l">prefer?&quot;</text><text x="57.114" y="1.67" class="k">node</text><text x="62.124" y="1.67" class="k">c</text><text x="64.128" y="1.67" class="k">rust</text><text x="69.138" y="1.67" class="k">python</text><text x="76.152" y="1.67" class="k">ruby</text><text x="81.162" y="1.67" class="k">-s</text><text x="84.168" y="1.67" class="o">2</text></symbol><symbol id="16"><text y="1.67" class="f">●</text><text x="2.004" y="1.67" class="g">⍴</text><text x="4.008" y="1.67" class="h">→</text><text x="6.012" y="1.67" class="j">enquirer</text><text x="15.03" y="1.67" class="k">select</text><text x="22.044" y="1.67" class="k">-m</text><text x="25.05" y="1.67" class="l">&quot;Which</text><text x="32.064" y="1.67" class="l">language</text><text x="41.082" y="1.67" class="l">do</text><text x="44.088" y="1.67" class="l">you</text><text x="48.096" y="1.67" class="l">prefer?&quot;</text><text x="57.114" y="1.67" class="k">node</text><text x="62.124" y="1.67" class="k">c</text><text x="64.128" y="1.67" class="k">rust</text><text x="69.138" y="1.67" class="k">python</text><text x="76.152" y="1.67" class="k">ruby</text><text x="81.162" y="1.67" class="k">-s</text><text x="84.168" y="1.67" class="k">2</text></symbol><symbol id="a"><path fill="transparent" d="M0 0h86v14H0z"/></symbol><symbol id="b"><path fill="#d6d6d6" d="M0 0h1.102v2.171H0z"/></symbol></defs><path class="a" d="M0 0h86v28.223H0z"/><g style="animation-duration:9.072656s;animation-iteration-count:infinite;animation-name:r;animation-timing-function:steps(1,end)"><svg width="4214"><svg><use xlink:href="#a"/><use xlink:href="#b" x="-.004"/></svg><svg x="86"><use xlink:href="#a"/><use xlink:href="#b" x="-.004"/></svg><svg x="172"><use xlink:href="#a"/><use xlink:href="#b" x="-.004"/></svg><svg x="258"><use xlink:href="#a"/><use xlink:href="#b" x="-.004"/></svg><svg x="344"><use xlink:href="#a"/><use xlink:href="#b" x="5.996"/><use xlink:href="#1"/></svg><svg x="430"><use xlink:href="#a"/><use xlink:href="#b" x="79.996"/><use xlink:href="#2"/></svg><svg x="516"><use xlink:href="#a"/><use xlink:href="#b" x="-.004"/><use xlink:href="#2"/></svg><svg x="602"><use xlink:href="#a"/><use xlink:href="#b" x="79.996"/><use xlink:href="#2"/></svg><svg x="688"><use xlink:href="#a"/><use xlink:href="#b" x="79.996"/><use xlink:href="#3"/></svg><svg x="774"><use xlink:href="#a"/><use xlink:href="#b" x="-.004" y="2.146"/><use xlink:href="#3"/></svg><svg x="860"><use xlink:href="#a"/><use xlink:href="#b" x="-.004" y="2.146"/><use xlink:href="#3"/></svg><svg x="946"><use xlink:href="#a"/><use xlink:href="#b" x="-.004" y="2.146"/><use xlink:href="#3"/></svg><svg x="1032"><use xlink:href="#a"/><use xlink:href="#b" x="-.004" y="2.146"/><use xlink:href="#3"/></svg><svg x="1118"><use xlink:href="#a"/><use xlink:href="#b" x="-.004" y="2.146"/><use xlink:href="#3"/></svg><svg x="1204"><use xlink:href="#a"/><use xlink:href="#b" x="-.004" y="15.172"/><use xlink:href="#3"/><use xlink:href="#4" y="2.171"/><use xlink:href="#5" y="4.342"/><use xlink:href="#6" y="6.513"/><use xlink:href="#7" y="8.684"/><use xlink:href="#8" y="10.855"/><use xlink:href="#9" y="13.026"/></svg><svg x="1290"><use xlink:href="#a"/><use xlink:href="#b" x="-.004" y="13.001"/><use xlink:href="#3"/><use xlink:href="#4" y="2.171"/><use xlink:href="#10" y="4.342"/><use xlink:href="#6" y="6.513"/><use xlink:href="#7" y="8.684"/><use xlink:href="#8" y="10.855"/></svg><svg x="1376"><use xlink:href="#a"/><use xlink:href="#b" x="-.004" y="15.172"/><use xlink:href="#3"/><use xlink:href="#4" y="2.171"/><use xlink:href="#10" y="4.342"/><use xlink:href="#6" y="6.513"/><use xlink:href="#7" y="8.684"/><use xlink:href="#8" y="10.855"/><use xlink:href="#9" y="13.026"/></svg><svg x="1462"><use xlink:href="#a"/><use xlink:href="#b" x="-.004" y="15.172"/><use xlink:href="#3"/><use xlink:href="#4" y="2.171"/><use xlink:href="#5" y="4.342"/><use xlink:href="#11" y="6.513"/><use xlink:href="#7" y="8.684"/><use xlink:href="#8" y="10.855"/><use xlink:href="#9" y="13.026"/></svg><svg x="1548"><use xlink:href="#a"/><use xlink:href="#b" x="-.004" y="15.172"/><use xlink:href="#3"/><use xlink:href="#4" y="2.171"/><use xlink:href="#5" y="4.342"/><use xlink:href="#6" y="6.513"/><use xlink:href="#12" y="8.684"/><use xlink:href="#8" y="10.855"/><use xlink:href="#9" y="13.026"/></svg><svg x="1634"><use xlink:href="#a"/><use xlink:href="#b" x="-.004" y="6.488"/><use xlink:href="#3"/><use xlink:href="#6" y="6.513"/><use xlink:href="#12" y="8.684"/><use xlink:href="#8" y="10.855"/><use xlink:href="#9" y="13.026"/></svg><svg x="1720"><use xlink:href="#a"/><use xlink:href="#b" x="-.004" y="6.488"/><use xlink:href="#3"/><use xlink:href="#13" y="2.171"/><use xlink:href="#14" y="4.342"/></svg><svg x="1806"><use xlink:href="#a"/><use xlink:href="#b" x="-.004" y="6.488"/><use xlink:href="#3"/><use xlink:href="#13" y="2.171"/><use xlink:href="#14" y="4.342"/></svg><svg x="1892"><use xlink:href="#a"/><use xlink:href="#b" x="-.004" y="6.488"/><use xlink:href="#3"/><use xlink:href="#13" y="2.171"/><use xlink:href="#14" y="4.342"/></svg><svg x="1978"><use xlink:href="#a"/><use xlink:href="#b" x="5.996" y="6.488"/><use xlink:href="#3"/><use xlink:href="#13" y="2.171"/><use xlink:href="#14" y="4.342"/><use xlink:href="#1" y="6.513"/></svg><svg x="2064"><use xlink:href="#a"/><use xlink:href="#b" x="79.996" y="6.488"/><use xlink:href="#3"/><use xlink:href="#13" y="2.171"/><use xlink:href="#14" y="4.342"/><use xlink:href="#2" y="6.513"/></svg><svg x="2150"><use xlink:href="#a"/><use xlink:href="#b" x="-.004" y="6.488"/><use xlink:href="#3"/><use xlink:href="#13" y="2.171"/><use xlink:href="#14" y="4.342"/><use xlink:href="#2" y="6.513"/></svg><svg x="2236"><use xlink:href="#a"/><use xlink:href="#b" x="79.996" y="6.488"/><use xlink:href="#3"/><use xlink:href="#13" y="2.171"/><use xlink:href="#14" y="4.342"/><use xlink:href="#2" y="6.513"/></svg><svg x="2322"><use xlink:href="#a"/><use xlink:href="#b" x="79.996" y="6.488"/><use xlink:href="#3"/><use xlink:href="#13" y="2.171"/><use xlink:href="#14" y="4.342"/><use xlink:href="#3" y="6.513"/></svg><svg x="2408"><use xlink:href="#a"/><use xlink:href="#b" x="80.996" y="6.488"/><use xlink:href="#3"/><use xlink:href="#13" y="2.171"/><use xlink:href="#14" y="4.342"/><use xlink:href="#3" y="6.513"/></svg><svg x="2494"><use xlink:href="#a"/><use xlink:href="#b" x="80.996" y="6.488"/><use xlink:href="#3"/><use xlink:href="#13" y="2.171"/><use xlink:href="#14" y="4.342"/><text y="8.183" class="f">●</text><text x="2.004" y="8.183" class="g">⍴</text><text x="4.008" y="8.183" class="h">→</text><text x="6.012" y="8.183" class="j">enquirer</text><text x="15.03" y="8.183" class="k">select</text><text x="22.044" y="8.183" class="k">-m</text><text x="25.05" y="8.183" class="l">&quot;Which</text><text x="32.064" y="8.183" class="l">language</text><text x="41.082" y="8.183" class="l">do</text><text x="44.088" y="8.183" class="l">you</text><text x="48.096" y="8.183" class="l">prefer?&quot;</text><text x="57.114" y="8.183" class="k">node</text><text x="62.124" y="8.183" class="k">c</text><text x="64.128" y="8.183" class="k">rust</text><text x="69.138" y="8.183" class="k">python</text><text x="76.152" y="8.183" class="k">ruby</text><text x="81.162" y="8.183" class="o">-s</text><text x="84.168" y="8.183" class="o">2</text></svg><svg x="2580"><use xlink:href="#a"/><use xlink:href="#b" x="81.996" y="6.488"/><use xlink:href="#3"/><use xlink:href="#13" y="2.171"/><use xlink:href="#14" y="4.342"/><text y="8.183" class="f">●</text><text x="2.004" y="8.183" class="g">⍴</text><text x="4.008" y="8.183" class="h">→</text><text x="6.012" y="8.183" class="j">enquirer</text><text x="15.03" y="8.183" class="k">select</text><text x="22.044" y="8.183" class="k">-m</text><text x="25.05" y="8.183" class="l">&quot;Which</text><text x="32.064" y="8.183" class="l">language</text><text x="41.082" y="8.183" class="l">do</text><text x="44.088" y="8.183" class="l">you</text><text x="48.096" y="8.183" class="l">prefer?&quot;</text><text x="57.114" y="8.183" class="k">node</text><text x="62.124" y="8.183" class="k">c</text><text x="64.128" y="8.183" class="k">rust</text><text x="69.138" y="8.183" class="k">python</text><text x="76.152" y="8.183" class="k">ruby</text><text x="81.162" y="8.183" class="i">-</text><text x="82.164" y="8.183" class="o">s</text><text x="84.168" y="8.183" class="o">2</text></svg><svg x="2666"><use xlink:href="#a"/><use xlink:href="#b" x="81.996" y="6.488"/><use xlink:href="#3"/><use xlink:href="#13" y="2.171"/><use xlink:href="#14" y="4.342"/><text y="8.183" class="f">●</text><text x="2.004" y="8.183" class="g">⍴</text><text x="4.008" y="8.183" class="h">→</text><text x="6.012" y="8.183" class="j">enquirer</text><text x="15.03" y="8.183" class="k">select</text><text x="22.044" y="8.183" class="k">-m</text><text x="25.05" y="8.183" class="l">&quot;Which</text><text x="32.064" y="8.183" class="l">language</text><text x="41.082" y="8.183" class="l">do</text><text x="44.088" y="8.183" class="l">you</text><text x="48.096" y="8.183" class="l">prefer?&quot;</text><text x="57.114" y="8.183" class="k">node</text><text x="62.124" y="8.183" class="k">c</text><text x="64.128" y="8.183" class="k">rust</text><text x="69.138" y="8.183" class="k">python</text><text x="76.152" y="8.183" class="k">ruby</text><text x="81.162" y="8.183" class="k">-</text><text x="82.164" y="8.183" class="o">s</text><text x="84.168" y="8.183" class="o">2</text></svg><svg x="2752"><use xlink:href="#a"/><use xlink:href="#b" x="82.996" y="6.488"/><use xlink:href="#3"/><use xlink:href="#13" y="2.171"/><use xlink:href="#14" y="4.342"/><use xlink:href="#15" y="6.513"/></svg><svg x="2838"><use xlink:href="#a"/><use xlink:href="#b" x="83.996" y="6.488"/><use xlink:href="#3"/><use xlink:href="#13" y="2.171"/><use xlink:href="#14" y="4.342"/><use xlink:href="#15" y="6.513"/></svg><svg x="2924"><use xlink:href="#a"/><use xlink:href="#b" x="83.996" y="6.488"/><use xlink:href="#3"/><use xlink:href="#13" y="2.171"/><use xlink:href="#14" y="4.342"/><use xlink:href="#15" y="6.513"/></svg><svg x="3010"><use xlink:href="#a"/><use xlink:href="#b" x="84.996" y="6.488"/><use xlink:href="#3"/><use xlink:href="#13" y="2.171"/><use xlink:href="#14" y="4.342"/><text y="8.183" class="f">●</text><text x="2.004" y="8.183" class="g">⍴</text><text x="4.008" y="8.183" class="h">→</text><text x="6.012" y="8.183" class="j">enquirer</text><text x="15.03" y="8.183" class="k">select</text><text x="22.044" y="8.183" class="k">-m</text><text x="25.05" y="8.183" class="l">&quot;Which</text><text x="32.064" y="8.183" class="l">language</text><text x="41.082" y="8.183" class="l">do</text><text x="44.088" y="8.183" class="l">you</text><text x="48.096" y="8.183" class="l">prefer?&quot;</text><text x="57.114" y="8.183" class="k">node</text><text x="62.124" y="8.183" class="k">c</text><text x="64.128" y="8.183" class="k">rust</text><text x="69.138" y="8.183" class="k">python</text><text x="76.152" y="8.183" class="k">ruby</text><text x="81.162" y="8.183" class="k">-s</text><text x="84.168" y="8.183" class="i">2</text></svg><svg x="3096"><use xlink:href="#a"/><use xlink:href="#b" x="84.996" y="6.488"/><use xlink:href="#3"/><use xlink:href="#13" y="2.171"/><use xlink:href="#14" y="4.342"/><use xlink:href="#16" y="6.513"/></svg><svg x="3182"><use xlink:href="#a"/><use xlink:href="#b" x="-.004" y="8.659"/><use xlink:href="#3"/><use xlink:href="#13" y="2.171"/><use xlink:href="#14" y="4.342"/><use xlink:href="#16" y="6.513"/></svg><svg x="3268"><use xlink:href="#a"/><use xlink:href="#b" x="-.004" y="8.659"/><use xlink:href="#3"/><use xlink:href="#13" y="2.171"/><use xlink:href="#14" y="4.342"/><use xlink:href="#16" y="6.513"/></svg><svg x="3354"><use xlink:href="#a"/><use xlink:href="#b" x="-.004" y="8.659"/><use xlink:href="#3"/><use xlink:href="#13" y="2.171"/><use xlink:href="#14" y="4.342"/><use xlink:href="#16" y="6.513"/></svg><svg x="3440"><use xlink:href="#a"/><use xlink:href="#b" x="-.004" y="8.659"/><use xlink:href="#3"/><use xlink:href="#13" y="2.171"/><use xlink:href="#14" y="4.342"/><use xlink:href="#16" y="6.513"/></svg><svg x="3526"><use xlink:href="#a"/><use xlink:href="#b" x="-.004" y="21.685"/><use xlink:href="#3"/><use xlink:href="#13" y="2.171"/><use xlink:href="#14" y="4.342"/><use xlink:href="#16" y="6.513"/><use xlink:href="#4" y="8.684"/><use xlink:href="#5" y="10.855"/><use xlink:href="#11" y="13.026"/><use xlink:href="#7" y="15.197"/><use xlink:href="#8" y="17.368"/><use xlink:href="#9" y="19.539"/></svg><svg x="3612"><use xlink:href="#a"/><use xlink:href="#b" x="-.004" y="21.685"/><use xlink:href="#3"/><use xlink:href="#13" y="2.171"/><use xlink:href="#14" y="4.342"/><use xlink:href="#16" y="6.513"/><use xlink:href="#4" y="8.684"/><use xlink:href="#5" y="10.855"/><use xlink:href="#6" y="13.026"/><use xlink:href="#12" y="15.197"/><use xlink:href="#8" y="17.368"/><use xlink:href="#9" y="19.539"/></svg><svg x="3698"><use xlink:href="#a"/><use xlink:href="#b" x="-.004" y="13.001"/><use xlink:href="#3"/><use xlink:href="#13" y="2.171"/><use xlink:href="#14" y="4.342"/><use xlink:href="#16" y="6.513"/><use xlink:href="#13" y="8.684"/><use xlink:href="#14" y="10.855"/></svg><svg x="3784"><use xlink:href="#a"/><use xlink:href="#b" x="-.004" y="13.001"/><use xlink:href="#3"/><use xlink:href="#13" y="2.171"/><use xlink:href="#14" y="4.342"/><use xlink:href="#16" y="6.513"/><use xlink:href="#13" y="8.684"/><use xlink:href="#14" y="10.855"/></svg><svg x="3870"><use xlink:href="#a"/><use xlink:href="#b" x="-.004" y="13.001"/><use xlink:href="#3"/><use xlink:href="#13" y="2.171"/><use xlink:href="#14" y="4.342"/><use xlink:href="#16" y="6.513"/><use xlink:href="#13" y="8.684"/><use xlink:href="#14" y="10.855"/></svg><svg x="3956"><use xlink:href="#a"/><use xlink:href="#b" x="5.996" y="13.001"/><use xlink:href="#3"/><use xlink:href="#13" y="2.171"/><use xlink:href="#14" y="4.342"/><use xlink:href="#16" y="6.513"/><use xlink:href="#13" y="8.684"/><use xlink:href="#14" y="10.855"/><use xlink:href="#1" y="13.026"/></svg><svg x="4042"><use xlink:href="#a"/><use xlink:href="#b" x="-.004" y="15.172"/><use xlink:href="#3"/><use xlink:href="#13" y="2.171"/><use xlink:href="#14" y="4.342"/><use xlink:href="#16" y="6.513"/><use xlink:href="#13" y="8.684"/><use xlink:href="#14" y="10.855"/><use xlink:href="#1" y="13.026"/></svg><svg x="4128"><use xlink:href="#a"/><use xlink:href="#b" x="-.004" y="15.172"/><use xlink:href="#3"/><use xlink:href="#13" y="2.171"/><use xlink:href="#14" y="4.342"/><use xlink:href="#16" y="6.513"/><use xlink:href="#13" y="8.684"/><use xlink:href="#14" y="10.855"/><use xlink:href="#1" y="13.026"/></svg></svg></g></g></svg></svg>
