<svg xmlns="http://www.w3.org/2000/svg" xmlns:xlink="http://www.w3.org/1999/xlink" width="940" height="342.23"><rect width="940" height="342.23" rx="5" ry="5" class="a"/><svg y="0%" x="0%"><circle cx="20" cy="20" r="6" fill="#ff5f58"/><circle cx="40" cy="20" r="6" fill="#ffbd2e"/><circle cx="60" cy="20" r="6" fill="#18c132"/></svg><svg height="282.23" viewBox="0 0 90 28.223" width="900" x="15" xmlns="http://www.w3.org/2000/svg" xmlns:xlink="http://www.w3.org/1999/xlink" y="50"><style>@keyframes r{0%{transform:translateX(0)}.1%{transform:translateX(-180px)}.3%{transform:translateX(-360px)}5.8%{transform:translateX(-450px)}5.9%{transform:translateX(-720px)}11.5%{transform:translateX(-1170px)}20%{transform:translateX(-1260px)}25.2%{transform:translateX(-1440px)}27.8%{transform:translateX(-1620px)}32.8%{transform:translateX(-1710px)}35.8%{transform:translateX(-1800px)}38.3%{transform:translateX(-1890px)}39.6%{transform:translateX(-1980px)}47.2%{transform:translateX(-2160px)}47.4%{transform:translateX(-2340px)}56.5%{transform:translateX(-2430px)}56.7%{transform:translateX(-2700px)}59.5%{transform:translateX(-2970px)}62.6%{transform:translateX(-3150px)}67%{transform:translateX(-3240px)}68.9%{transform:translateX(-3600px)}69%{transform:translateX(-3690px)}78%{transform:translateX(-3780px)}81.9%{transform:translateX(-3870px)}83.6%{transform:translateX(-3960px)}90.9%{transform:translateX(-4140px)}91.1%{transform:translateX(-4410px)}to{transform:translateX(-4590px)}}.a{fill:#161827}.f{fill:#8ce10b}.g{fill:#00d8eb}.h{fill:#5f5f5f}.i{fill:#dfdfdf}.j{fill:#005fd7}.k{fill:#00afff}.l{fill:#878700}.m,.n{fill:#fff;font-weight:700}.n{fill:#00d8eb}.o{fill:#585858}</style><g font-size="1.67" font-family="Monaco,Consolas,Menlo,'Bitstream Vera Sans Mono','Powerline Symbols',monospace"><defs><symbol id="1"><text y="1.67" class="f">●</text><text x="2.004" y="1.67" class="g">⍴</text><text x="4.008" y="1.67" class="h">→</text></symbol><symbol id="2"><text y="1.67" class="f">●</text><text x="2.004" y="1.67" class="g">⍴</text><text x="4.008" y="1.67" class="h">→</text><text x="6.012" y="1.67" class="i">enquirer</text><text x="15.03" y="1.67" class="i">sort</text><text x="20.04" y="1.67" class="i">-m</text><text x="23.046" y="1.67" class="i">&quot;Specify</text><text x="32.064" y="1.67" class="i">priority</text><text x="41.082" y="1.67" class="i">for</text><text x="45.09" y="1.67" class="i">checks?&quot;</text><text x="54.108" y="1.67" class="i">gitlab</text><text x="61.122" y="1.67" class="i">github</text><text x="68.136" y="1.67" class="i">sourcehut</text></symbol><symbol id="3"><text y="1.67" class="f">●</text><text x="2.004" y="1.67" class="g">⍴</text><text x="4.008" y="1.67" class="h">→</text><text x="6.012" y="1.67" class="j">enquirer</text><text x="15.03" y="1.67" class="k">sort</text><text x="20.04" y="1.67" class="k">-m</text><text x="23.046" y="1.67" class="l">&quot;Specify</text><text x="32.064" y="1.67" class="l">priority</text><text x="41.082" y="1.67" class="l">for</text><text x="45.09" y="1.67" class="l">checks?&quot;</text><text x="54.108" y="1.67" class="k">gitlab</text><text x="61.122" y="1.67" class="k">github</text><text x="68.136" y="1.67" class="k">sourcehut</text></symbol><symbol id="4"><text y="1.67" class="g">?</text><text x="2.004" y="1.67" class="m">Specify</text><text x="10.02" y="1.67" class="m">priority</text><text x="19.038" y="1.67" class="m">for</text><text x="23.046" y="1.67" class="m">checks?</text><text x="31.062" y="1.67" class="h">›</text></symbol><symbol id="5"><text x="2.004" y="1.67" class="n">gitlab</text></symbol><symbol id="6"><text x="2.004" y="1.67" class="i">github</text></symbol><symbol id="7"><text x="2.004" y="1.67" class="i">sourcehut</text></symbol><symbol id="8"><text x="2.004" y="1.67" class="i">gitlab</text></symbol><symbol id="9"><text x="2.004" y="1.67" class="n">github</text></symbol><symbol id="10"><text y="1.67" class="f">❯</text><text x="2.004" y="1.67" class="n">github</text></symbol><symbol id="11"><text y="1.67" class="f">✔</text><text x="2.004" y="1.67" class="m">Specify</text><text x="10.02" y="1.67" class="m">priority</text><text x="19.038" y="1.67" class="m">for</text><text x="23.046" y="1.67" class="m">checks?</text><text x="31.062" y="1.67" class="h">·</text><text x="33.066" y="1.67" class="f">github</text><text x="39.078" y="1.67" class="i">,</text><text x="41.082" y="1.67" class="f">gitlab</text><text x="47.094" y="1.67" class="i">,</text><text x="49.098" y="1.67" class="f">sourcehut</text></symbol><symbol id="12"><text y="1.67" class="i">github</text></symbol><symbol id="13"><text y="1.67" class="i">gitlab</text></symbol><symbol id="14"><text y="1.67" class="i">sourcehut</text></symbol><symbol id="15"><text y="1.67" class="f">●</text><text x="2.004" y="1.67" class="g">⍴</text><text x="4.008" y="1.67" class="h">→</text><text x="6.012" y="1.67" class="j">enquirer</text><text x="15.03" y="1.67" class="k">sort</text><text x="20.04" y="1.67" class="k">-m</text><text x="23.046" y="1.67" class="l">&quot;Specify</text><text x="32.064" y="1.67" class="l">priority</text><text x="41.082" y="1.67" class="l">for</text><text x="45.09" y="1.67" class="l">checks?&quot;</text><text x="54.108" y="1.67" class="k">gitlab</text><text x="61.122" y="1.67" class="k">github</text><text x="68.136" y="1.67" class="k">sourcehut</text><text x="78.156" y="1.67" class="o">--no-inline</text></symbol><symbol id="16"><text y="1.67" class="f">●</text><text x="2.004" y="1.67" class="g">⍴</text><text x="4.008" y="1.67" class="h">→</text><text x="6.012" y="1.67" class="j">enquirer</text><text x="15.03" y="1.67" class="k">sort</text><text x="20.04" y="1.67" class="k">-m</text><text x="23.046" y="1.67" class="l">&quot;Specify</text><text x="32.064" y="1.67" class="l">priority</text><text x="41.082" y="1.67" class="l">for</text><text x="45.09" y="1.67" class="l">checks?&quot;</text><text x="54.108" y="1.67" class="k">gitlab</text><text x="61.122" y="1.67" class="k">github</text><text x="68.136" y="1.67" class="k">sourcehut</text><text x="78.156" y="1.67" class="k">--no-inline</text></symbol><symbol id="17"><text y="1.67" class="f">✔</text><text x="2.004" y="1.67" class="m">Specify</text><text x="10.02" y="1.67" class="m">priority</text><text x="19.038" y="1.67" class="m">for</text><text x="23.046" y="1.67" class="m">checks?</text><text x="31.062" y="1.67" class="h">·</text></symbol><symbol id="a"><path fill="transparent" d="M0 0h90v14H0z"/></symbol><symbol id="b"><path fill="#d6d6d6" d="M0 0h1.102v2.171H0z"/></symbol></defs><path class="a" d="M0 0h90v28.223H0z"/><g style="animation-duration:14.4455s;animation-iteration-count:infinite;animation-name:r;animation-timing-function:steps(1,end)"><svg width="4680"><svg><use xlink:href="#a"/><use xlink:href="#b" x="-.004"/></svg><svg x="90"><use xlink:href="#a"/><use xlink:href="#b" x="-.004"/></svg><svg x="180"><use xlink:href="#a"/><use xlink:href="#b" x="-.004"/></svg><svg x="270"><use xlink:href="#a"/><use xlink:href="#b" x="-.004"/></svg><svg x="360"><use xlink:href="#a"/><use xlink:href="#b" x="5.996"/><use xlink:href="#1"/></svg><svg x="450"><use xlink:href="#a"/><use xlink:href="#b" x="76.996"/><use xlink:href="#2"/></svg><svg x="540"><use xlink:href="#a"/><use xlink:href="#b" x="-.004"/><use xlink:href="#2"/></svg><svg x="630"><use xlink:href="#a"/><use xlink:href="#b" x="76.996"/><use xlink:href="#2"/></svg><svg x="720"><use xlink:href="#a"/><use xlink:href="#b" x="76.996"/><use xlink:href="#3"/></svg><svg x="810"><use xlink:href="#a"/><use xlink:href="#b" x="-.004" y="2.146"/><use xlink:href="#3"/></svg><svg x="900"><use xlink:href="#a"/><use xlink:href="#b" x="-.004" y="2.146"/><use xlink:href="#3"/></svg><svg x="990"><use xlink:href="#a"/><use xlink:href="#b" x="-.004" y="2.146"/><use xlink:href="#3"/></svg><svg x="1080"><use xlink:href="#a"/><use xlink:href="#b" x="-.004" y="2.146"/><use xlink:href="#3"/></svg><svg x="1170"><use xlink:href="#a"/><use xlink:href="#b" x="-.004" y="10.83"/><use xlink:href="#3"/><use xlink:href="#4" y="2.171"/><use xlink:href="#5" y="4.342"/><use xlink:href="#6" y="6.513"/><use xlink:href="#7" y="8.684"/></svg><svg x="1260"><use xlink:href="#a"/><use xlink:href="#b" x="-.004" y="10.83"/><use xlink:href="#3"/><use xlink:href="#4" y="2.171"/><use xlink:href="#8" y="4.342"/><use xlink:href="#9" y="6.513"/><use xlink:href="#7" y="8.684"/></svg><svg x="1350"><use xlink:href="#a"/><use xlink:href="#b" x="-.004" y="6.488"/><use xlink:href="#3"/><use xlink:href="#4" y="2.171"/><use xlink:href="#7" y="8.684"/></svg><svg x="1440"><use xlink:href="#a"/><use xlink:href="#b" x="-.004" y="10.83"/><use xlink:href="#3"/><use xlink:href="#4" y="2.171"/><use xlink:href="#8" y="4.342"/><use xlink:href="#6" y="6.513"/><text x="2.004" y="10.354" class="n">sourcehut</text></svg><svg x="1530"><use xlink:href="#a"/><use xlink:href="#b" x="-.004" y="8.659"/><use xlink:href="#3"/><use xlink:href="#4" y="2.171"/></svg><svg x="1620"><use xlink:href="#a"/><use xlink:href="#b" x="-.004" y="10.83"/><use xlink:href="#3"/><use xlink:href="#4" y="2.171"/><use xlink:href="#8" y="4.342"/><use xlink:href="#9" y="6.513"/><use xlink:href="#7" y="8.684"/></svg><svg x="1710"><use xlink:href="#a"/><use xlink:href="#b" x="-.004" y="10.83"/><use xlink:href="#3"/><use xlink:href="#4" y="2.171"/><use xlink:href="#8" y="4.342"/><use xlink:href="#10" y="6.513"/><use xlink:href="#7" y="8.684"/></svg><svg x="1800"><use xlink:href="#a"/><use xlink:href="#b" x="-.004" y="10.83"/><use xlink:href="#3"/><use xlink:href="#4" y="2.171"/><use xlink:href="#8" y="4.342"/><use xlink:href="#7" y="6.513"/><use xlink:href="#10" y="8.684"/></svg><svg x="1890"><use xlink:href="#a"/><use xlink:href="#b" x="-.004" y="10.83"/><use xlink:href="#3"/><use xlink:href="#4" y="2.171"/><use xlink:href="#8" y="4.342"/><use xlink:href="#10" y="6.513"/><use xlink:href="#7" y="8.684"/></svg><svg x="1980"><use xlink:href="#a"/><use xlink:href="#b" x="-.004" y="10.83"/><use xlink:href="#3"/><use xlink:href="#4" y="2.171"/><use xlink:href="#10" y="4.342"/><use xlink:href="#8" y="6.513"/><use xlink:href="#7" y="8.684"/></svg><svg x="2070"><use xlink:href="#a"/><use xlink:href="#b" x="-.004" y="10.83"/><use xlink:href="#3"/><use xlink:href="#11" y="2.171"/><use xlink:href="#12" y="4.342"/><use xlink:href="#13" y="6.513"/><use xlink:href="#14" y="8.684"/></svg><svg x="2160"><use xlink:href="#a"/><use xlink:href="#b" x="-.004" y="10.83"/><use xlink:href="#3"/><use xlink:href="#11" y="2.171"/><use xlink:href="#12" y="4.342"/><use xlink:href="#13" y="6.513"/><use xlink:href="#14" y="8.684"/></svg><svg x="2250"><use xlink:href="#a"/><use xlink:href="#b" x="-.004" y="10.83"/><use xlink:href="#3"/><use xlink:href="#11" y="2.171"/><use xlink:href="#12" y="4.342"/><use xlink:href="#13" y="6.513"/><use xlink:href="#14" y="8.684"/></svg><svg x="2340"><use xlink:href="#a"/><use xlink:href="#b" x="5.996" y="10.83"/><use xlink:href="#3"/><use xlink:href="#11" y="2.171"/><use xlink:href="#12" y="4.342"/><use xlink:href="#13" y="6.513"/><use xlink:href="#14" y="8.684"/><use xlink:href="#1" y="10.855"/></svg><svg x="2430"><use xlink:href="#a"/><use xlink:href="#b" x="76.996" y="10.83"/><use xlink:href="#3"/><use xlink:href="#11" y="2.171"/><use xlink:href="#12" y="4.342"/><use xlink:href="#13" y="6.513"/><use xlink:href="#14" y="8.684"/><use xlink:href="#2" y="10.855"/></svg><svg x="2520"><use xlink:href="#a"/><use xlink:href="#b" x="-.004" y="10.83"/><use xlink:href="#3"/><use xlink:href="#11" y="2.171"/><use xlink:href="#12" y="4.342"/><use xlink:href="#13" y="6.513"/><use xlink:href="#14" y="8.684"/><use xlink:href="#2" y="10.855"/></svg><svg x="2610"><use xlink:href="#a"/><use xlink:href="#b" x="76.996" y="10.83"/><use xlink:href="#3"/><use xlink:href="#11" y="2.171"/><use xlink:href="#12" y="4.342"/><use xlink:href="#13" y="6.513"/><use xlink:href="#14" y="8.684"/><use xlink:href="#2" y="10.855"/></svg><svg x="2700"><use xlink:href="#a"/><use xlink:href="#b" x="76.996" y="10.83"/><use xlink:href="#3"/><use xlink:href="#11" y="2.171"/><use xlink:href="#12" y="4.342"/><use xlink:href="#13" y="6.513"/><use xlink:href="#14" y="8.684"/><use xlink:href="#3" y="10.855"/></svg><svg x="2790"><use xlink:href="#a"/><use xlink:href="#b" x="77.996" y="10.83"/><use xlink:href="#3"/><use xlink:href="#11" y="2.171"/><use xlink:href="#12" y="4.342"/><use xlink:href="#13" y="6.513"/><use xlink:href="#14" y="8.684"/><use xlink:href="#3" y="10.855"/></svg><svg x="2880"><use xlink:href="#a"/><use xlink:href="#b" x="77.996" y="10.83"/><use xlink:href="#3"/><use xlink:href="#11" y="2.171"/><use xlink:href="#12" y="4.342"/><use xlink:href="#13" y="6.513"/><use xlink:href="#14" y="8.684"/><use xlink:href="#15" y="10.855"/></svg><svg x="2970"><use xlink:href="#a"/><use xlink:href="#b" x="77.996" y="10.83"/><use xlink:href="#3"/><use xlink:href="#11" y="2.171"/><use xlink:href="#12" y="4.342"/><use xlink:href="#13" y="6.513"/><use xlink:href="#14" y="8.684"/><use xlink:href="#15" y="10.855"/></svg><svg x="3060"><use xlink:href="#a"/><use xlink:href="#b" x="78.996" y="10.83"/><use xlink:href="#3"/><use xlink:href="#11" y="2.171"/><use xlink:href="#12" y="4.342"/><use xlink:href="#13" y="6.513"/><use xlink:href="#14" y="8.684"/><text y="12.525" class="f">●</text><text x="2.004" y="12.525" class="g">⍴</text><text x="4.008" y="12.525" class="h">→</text><text x="6.012" y="12.525" class="j">enquirer</text><text x="15.03" y="12.525" class="k">sort</text><text x="20.04" y="12.525" class="k">-m</text><text x="23.046" y="12.525" class="l">&quot;Specify</text><text x="32.064" y="12.525" class="l">priority</text><text x="41.082" y="12.525" class="l">for</text><text x="45.09" y="12.525" class="l">checks?&quot;</text><text x="54.108" y="12.525" class="k">gitlab</text><text x="61.122" y="12.525" class="k">github</text><text x="68.136" y="12.525" class="k">sourcehut</text><text x="78.156" y="12.525" class="i">-</text><text x="79.158" y="12.525" class="o">-no-inline</text></svg><svg x="3150"><use xlink:href="#a"/><use xlink:href="#b" x="78.996" y="10.83"/><use xlink:href="#3"/><use xlink:href="#11" y="2.171"/><use xlink:href="#12" y="4.342"/><use xlink:href="#13" y="6.513"/><use xlink:href="#14" y="8.684"/><text y="12.525" class="f">●</text><text x="2.004" y="12.525" class="g">⍴</text><text x="4.008" y="12.525" class="h">→</text><text x="6.012" y="12.525" class="j">enquirer</text><text x="15.03" y="12.525" class="k">sort</text><text x="20.04" y="12.525" class="k">-m</text><text x="23.046" y="12.525" class="l">&quot;Specify</text><text x="32.064" y="12.525" class="l">priority</text><text x="41.082" y="12.525" class="l">for</text><text x="45.09" y="12.525" class="l">checks?&quot;</text><text x="54.108" y="12.525" class="k">gitlab</text><text x="61.122" y="12.525" class="k">github</text><text x="68.136" y="12.525" class="k">sourcehut</text><text x="78.156" y="12.525" class="k">-</text><text x="79.158" y="12.525" class="o">-no-inline</text></svg><svg x="3240"><use xlink:href="#a"/><use xlink:href="#b" x="88.996" y="10.83"/><use xlink:href="#3"/><use xlink:href="#11" y="2.171"/><use xlink:href="#12" y="4.342"/><use xlink:href="#13" y="6.513"/><use xlink:href="#14" y="8.684"/><use xlink:href="#16" y="10.855"/></svg><svg x="3330"><use xlink:href="#a"/><use xlink:href="#b" x="-.004" y="13.001"/><use xlink:href="#3"/><use xlink:href="#11" y="2.171"/><use xlink:href="#12" y="4.342"/><use xlink:href="#13" y="6.513"/><use xlink:href="#14" y="8.684"/><use xlink:href="#16" y="10.855"/></svg><svg x="3420"><use xlink:href="#a"/><use xlink:href="#b" x="-.004" y="13.001"/><use xlink:href="#3"/><use xlink:href="#11" y="2.171"/><use xlink:href="#12" y="4.342"/><use xlink:href="#13" y="6.513"/><use xlink:href="#14" y="8.684"/><use xlink:href="#16" y="10.855"/></svg><svg x="3510"><use xlink:href="#a"/><use xlink:href="#b" x="-.004" y="13.001"/><use xlink:href="#3"/><use xlink:href="#11" y="2.171"/><use xlink:href="#12" y="4.342"/><use xlink:href="#13" y="6.513"/><use xlink:href="#14" y="8.684"/><use xlink:href="#16" y="10.855"/></svg><svg x="3600"><use xlink:href="#a"/><use xlink:href="#b" x="-.004" y="13.001"/><use xlink:href="#3"/><use xlink:href="#11" y="2.171"/><use xlink:href="#12" y="4.342"/><use xlink:href="#13" y="6.513"/><use xlink:href="#14" y="8.684"/><use xlink:href="#16" y="10.855"/></svg><svg x="3690"><use xlink:href="#a"/><use xlink:href="#b" x="-.004" y="21.685"/><use xlink:href="#3"/><use xlink:href="#11" y="2.171"/><use xlink:href="#12" y="4.342"/><use xlink:href="#13" y="6.513"/><use xlink:href="#14" y="8.684"/><use xlink:href="#16" y="10.855"/><use xlink:href="#4" y="13.026"/><use xlink:href="#5" y="15.197"/><use xlink:href="#6" y="17.368"/><use xlink:href="#7" y="19.539"/></svg><svg x="3780"><use xlink:href="#a"/><use xlink:href="#b" x="-.004" y="21.685"/><use xlink:href="#3"/><use xlink:href="#11" y="2.171"/><use xlink:href="#12" y="4.342"/><use xlink:href="#13" y="6.513"/><use xlink:href="#14" y="8.684"/><use xlink:href="#16" y="10.855"/><use xlink:href="#4" y="13.026"/><use xlink:href="#8" y="15.197"/><use xlink:href="#9" y="17.368"/><use xlink:href="#7" y="19.539"/></svg><svg x="3870"><use xlink:href="#a"/><use xlink:href="#b" x="-.004" y="21.685"/><use xlink:href="#3"/><use xlink:href="#11" y="2.171"/><use xlink:href="#12" y="4.342"/><use xlink:href="#13" y="6.513"/><use xlink:href="#14" y="8.684"/><use xlink:href="#16" y="10.855"/><use xlink:href="#4" y="13.026"/><use xlink:href="#8" y="15.197"/><use xlink:href="#10" y="17.368"/><use xlink:href="#7" y="19.539"/></svg><svg x="3960"><use xlink:href="#a"/><use xlink:href="#b" x="-.004" y="21.685"/><use xlink:href="#3"/><use xlink:href="#11" y="2.171"/><use xlink:href="#12" y="4.342"/><use xlink:href="#13" y="6.513"/><use xlink:href="#14" y="8.684"/><use xlink:href="#16" y="10.855"/><use xlink:href="#4" y="13.026"/><use xlink:href="#10" y="15.197"/><use xlink:href="#8" y="17.368"/><use xlink:href="#7" y="19.539"/></svg><svg x="4050"><use xlink:href="#a"/><use xlink:href="#b" x="-.004" y="21.685"/><use xlink:href="#3"/><use xlink:href="#11" y="2.171"/><use xlink:href="#12" y="4.342"/><use xlink:href="#13" y="6.513"/><use xlink:href="#14" y="8.684"/><use xlink:href="#16" y="10.855"/><use xlink:href="#17" y="13.026"/><use xlink:href="#12" y="15.197"/><use xlink:href="#13" y="17.368"/><use xlink:href="#14" y="19.539"/></svg><svg x="4140"><use xlink:href="#a"/><use xlink:href="#b" x="-.004" y="21.685"/><use xlink:href="#3"/><use xlink:href="#11" y="2.171"/><use xlink:href="#12" y="4.342"/><use xlink:href="#13" y="6.513"/><use xlink:href="#14" y="8.684"/><use xlink:href="#16" y="10.855"/><use xlink:href="#17" y="13.026"/><use xlink:href="#12" y="15.197"/><use xlink:href="#13" y="17.368"/><use xlink:href="#14" y="19.539"/></svg><svg x="4230"><use xlink:href="#a"/><use xlink:href="#b" x="-.004" y="21.685"/><use xlink:href="#3"/><use xlink:href="#11" y="2.171"/><use xlink:href="#12" y="4.342"/><use xlink:href="#13" y="6.513"/><use xlink:href="#14" y="8.684"/><use xlink:href="#16" y="10.855"/><use xlink:href="#17" y="13.026"/><use xlink:href="#12" y="15.197"/><use xlink:href="#13" y="17.368"/><use xlink:href="#14" y="19.539"/></svg><svg x="4320"><use xlink:href="#a"/><use xlink:href="#b" x="-.004" y="21.685"/><use xlink:href="#3"/><use xlink:href="#11" y="2.171"/><use xlink:href="#12" y="4.342"/><use xlink:href="#13" y="6.513"/><use xlink:href="#14" y="8.684"/><use xlink:href="#16" y="10.855"/><use xlink:href="#17" y="13.026"/><use xlink:href="#12" y="15.197"/><use xlink:href="#13" y="17.368"/><use xlink:href="#14" y="19.539"/></svg><svg x="4410"><use xlink:href="#a"/><use xlink:href="#b" x="5.996" y="21.685"/><use xlink:href="#3"/><use xlink:href="#11" y="2.171"/><use xlink:href="#12" y="4.342"/><use xlink:href="#13" y="6.513"/><use xlink:href="#14" y="8.684"/><use xlink:href="#16" y="10.855"/><use xlink:href="#17" y="13.026"/><use xlink:href="#12" y="15.197"/><use xlink:href="#13" y="17.368"/><use xlink:href="#14" y="19.539"/><use xlink:href="#1" y="21.71"/></svg><svg x="4500"><use xlink:href="#a"/><use xlink:href="#b" x="-.004" y="23.856"/><use xlink:href="#3"/><use xlink:href="#11" y="2.171"/><use xlink:href="#12" y="4.342"/><use xlink:href="#13" y="6.513"/><use xlink:href="#14" y="8.684"/><use xlink:href="#16" y="10.855"/><use xlink:href="#17" y="13.026"/><use xlink:href="#12" y="15.197"/><use xlink:href="#13" y="17.368"/><use xlink:href="#14" y="19.539"/><use xlink:href="#1" y="21.71"/></svg><svg x="4590"><use xlink:href="#a"/><use xlink:href="#b" x="-.004" y="23.856"/><use xlink:href="#3"/><use xlink:href="#11" y="2.171"/><use xlink:href="#12" y="4.342"/><use xlink:href="#13" y="6.513"/><use xlink:href="#14" y="8.684"/><use xlink:href="#16" y="10.855"/><use xlink:href="#17" y="13.026"/><use xlink:href="#12" y="15.197"/><use xlink:href="#13" y="17.368"/><use xlink:href="#14" y="19.539"/><use xlink:href="#1" y="21.71"/></svg></svg></g></g></svg></svg>
